<?xml version="1.0" standalone="no"?>
<!DOCTYPE svg PUBLIC "-//W3C//DTD SVG 1.1//EN" "http://www.w3.org/Graphics/SVG/1.1/DTD/svg11.dtd" >
<svg xmlns="http://www.w3.org/2000/svg">
  <metadata>Created by iconfont</metadata>
  <defs>
  <font id="iconfont" horiz-adv-x="1024">
    <font-face
      font-family="iconfont"
      font-weight="400"
      font-stretch="normal"
      units-per-em="1024"
      ascent="896"
      descent="-128"
    />
      <missing-glyph />
      
      <glyph glyph-name="iocn-xingping1" unicode="&#59001;" d="M554.666667 69.12l-260.522667-109.482667A29.525333 29.525333 0 0 0 256-26.197333a26.453333 26.453333 0 0 0-2.304 13.909333l28.672 269.824L92.672 459.946667a26.624 26.624 0 0 0 2.304 38.912 29.44 29.44 0 0 0 13.141333 6.4l278.186667 57.429333 143.36 234.410667a29.696 29.696 0 0 0 50.005333 0l143.274667-234.410667 278.186667-57.429333c15.701333-3.242667 25.6-17.92 22.186666-32.768a27.136 27.136 0 0 0-6.656-12.544L826.88 257.621333l28.672-269.909333a27.904 27.904 0 0 0-25.856-30.208 30.208 30.208 0 0 0-14.592 2.133333L554.666667 69.12z"  horiz-adv-x="1024" />
      
      <glyph glyph-name="icon-xingping2" unicode="&#59002;" d="M0.08832 896h431.172267v-1024H0.08832z"  horiz-adv-x="1024" />
      
      <glyph glyph-name="icon-xingping3" unicode="&#59003;" d=""  horiz-adv-x="1024" />
      
      <glyph glyph-name="icon-dingdan-tongzhi" unicode="&#59000;" d="M809.813333 387.925333c0 102.997333-70.144 192.853333-168.789333 221.44-17.578667 4.352-30.72-6.570667-35.072-21.930666 0-2.218667-2.218667-6.570667 0-6.570667 0-13.141333 6.570667-26.368 19.712-30.72C715.52 523.861333 770.389333 431.786667 744.106667 339.626667a173.653333 173.653333 0 0 0-118.442667-118.357334c-13.141333-4.437333-21.930667-17.578667-19.712-30.72 0-17.493333 13.141333-30.72 28.501333-30.72h6.570667c100.864 32.938667 171.008 122.88 168.789333 228.096zM711.168 767.146667c-15.36 6.656-30.72 2.218667-39.424-13.056-2.218667-4.437333-4.437333-6.656-4.437333-13.226667 0-10.922667 6.570667-21.930667 17.578666-26.282667a366.421333 366.421333 0 0 0 168.789334-488.96 355.84 355.84 0 0 0-168.789334-166.570666c-11.008-6.656-17.578667-15.36-17.578666-26.368 0-17.493333 13.141333-30.72 30.72-30.72 4.352 0 8.789333 2.218667 13.141333 4.437333a422.912 422.912 0 0 1 195.157333 570.026667c-41.642667 81.152-109.653333 151.296-195.157333 190.805333z m-223.573333-819.968a69.461333 69.461333 0 0 0-35.157334 8.789333l-4.352 2.218667-171.008 162.133333H147.626667a73.472 73.472 0 0 0-74.581334 72.448V578.56c0 39.424 32.938667 72.362667 74.581334 72.362667h129.365333L448 813.226667a74.24 74.24 0 0 0 76.8-2.133334c21.845333-13.226667 37.205333-37.290667 37.205333-61.44v-730.112c0-24.149333-13.141333-46.08-35.072-61.44a75.690667 75.690667 0 0 0-39.509333-10.922666z m-4.437334 61.44c6.570667-2.218667 10.922667 0 15.36 2.133333 2.133333 2.218667 6.570667 4.437333 6.570667 8.789333V751.872c0 4.352-4.437333 8.789333-6.570667 8.789333-4.437333 2.133333-8.789333 4.352-15.36 2.133334l-173.226666-166.570667-8.789334-2.218667c-8.704-2.218667-17.493333-4.437333-30.72-4.437333H147.797333c-8.789333 0-15.36-4.266667-15.36-13.141333V192.853333c0-6.570667 6.570667-13.141333 15.36-13.141333H270.506667c13.141333 0 24.064-2.218667 34.986666-8.789333l4.437334-2.218667 173.226666-160z"  horiz-adv-x="1024" />
      
      <glyph glyph-name="chenggong" unicode="&#58997;" d="M512-26.666667c-226.432 0-410.666667 184.234667-410.666667 410.666667S285.568 794.666667 512 794.666667 922.666667 610.432 922.666667 384 738.432-26.666667 512-26.666667M512 853.333333C252.8 853.333333 42.666667 643.2 42.666667 384s210.133333-469.333333 469.333333-469.333333 469.333333 210.133333 469.333333 469.333333S771.2 853.333333 512 853.333333M706.218667 519.978667a15.658667 15.658667 0 0 1-22.186667 0l-196.352-196.394667-113.450667 113.408a15.701333 15.701333 0 0 1-22.101333 0l-19.370667-19.328a15.658667 15.658667 0 0 1 0-22.186667l143.786667-143.786666a15.701333 15.701333 0 0 1 22.229333 0l226.816 226.816a15.616 15.616 0 0 1 0 22.101333l-19.370666 19.370667z"  horiz-adv-x="1024" />
      
      <glyph glyph-name="a-100" unicode="&#58999;" d="M542.723367 568.319721l29.081588-51.199979H604.163342l-28.876788 51.199979zM593.923346 595.209951h-51.333099v43.786222h-28.671989v-43.786222h-36.229105v53.073898H593.923346V660.479685H450.563404v-81.008608h63.344614v-50.04286h-23.29599V517.119742h51.978219v62.351335H593.923346zM440.323408 517.119742h32.368627L501.763383 568.319721h-32.563187zM604.163342 517.119742h28.856309L655.363322 588.799713h-29.593588zM675.843314 650.239689h102.399959v10.239996H675.843314zM735.15337 639.999693h-26.623989v-20.654072H665.603318v-11.161595h42.926063V588.799713h26.623989v19.384313H778.243273v11.161595h-43.089903zM701.248744 527.902458v49.6435h51.589099v-50.04286l-7.270397-8.058877v8.458237h-44.318702zM675.843314 517.119742h102.399959v71.679971H675.843314v-71.679971zM614.403338 660.479685l22.835191-30.719988H665.603318l-22.630391 30.719988zM604.163342 619.519701l22.732791-30.719988H655.363322l-22.732791 30.719988zM917.322897 588.799713H793.941186v-13.588474h23.244791L788.483269 517.119742h29.788148l28.692468 58.091497h37.447665l-12.492795-17.346553v-8.878077h30.126068v-19.353592h-50.03262V517.119742H931.843211v44.789742h-25.948149l12.462075 17.059833V588.799713zM788.483269 660.479685v-12.554235h58.572776v-18.554873H788.483269v-13.219835h19.496952L790.285508 588.799713h27.873269l17.192953 27.340789h11.704315V588.799713h27.637749v27.340789h10.854396L905.495702 588.799713h25.52831l-17.776633 27.340789H931.843211v13.230075h-57.149417v18.554873H931.843211V660.479685zM590.267668 496.63975H583.683351v-51.199979h20.479991v8.366076h-13.895674zM649.987324 474.152719c0-5.058558-1.607679-9.113596-4.915198-12.410875a16.312313 16.312313 0 0 0-12.062715-4.894718c-4.638718 0-8.499197 1.638399-11.837435 5.017598a16.435193 16.435193 0 0 0-4.956158 12.093435c0 4.997118 1.576959 9.082876 4.812798 12.472315 3.235839 3.379199 7.147517 5.017598 11.980795 5.017598 4.720638 0 8.642557-1.638399 12.001275-5.017598 3.348479-3.358719 4.976638-7.383037 4.976638-12.287995m-4.403198 21.954551a25.57951 25.57951 0 0 1-12.759035 3.307519c-4.403198 0-8.560637-1.1264-12.390395-3.348479a24.34047 24.34047 0 0 1-9.072637-9.256956 25.88671 25.88671 0 0 1-3.307518-12.840955 25.00607 25.00607 0 0 1 12.523515-21.749751c3.860478-2.201599 8.110077-3.317759 12.615675-3.317759a24.71935 24.71935 0 0 1 21.647351 12.574715c2.201599 3.891198 3.317759 8.161277 3.317759 12.687355 0 4.567038-1.1264 8.857596-3.348479 12.748795a24.20735 24.20735 0 0 1-9.215996 9.195516M690.261228 479.559437h-18.892793V498.278149h-8.038396v-48.27134h8.038396v21.585911h18.892793v-21.585911h7.987197V498.278149h-7.987197zM719.885536 473.394959l4.792318 10.649596 4.751358-10.649596h-9.543676z m3.102719 26.69567l-22.456311-50.07358h8.816636l6.891518 15.237114h16.773113l6.952957-15.237114h8.622077l-22.200312 50.07358h-3.399678zM765.033678 478.525197c-4.382718 3.235839-6.041598 4.812798-6.666237 5.580798a4.894718 4.894718 0 0 0-1.09568 3.235839c0 1.1264 0.3584 1.996799 1.1264 2.734079a4.270078 4.270078 0 0 0 3.123198 1.126399c1.382399 0 2.498559-0.36864 3.409919-1.136639 1.11616-0.94208 2.211839-2.150399 3.276799-3.604479l1.075199-1.484799 6.348798 4.986878-0.98304 1.402879a22.865911 22.865911 0 0 1-5.683198 5.898238 12.799995 12.799995 0 0 1-7.321597 2.150399 12.185595 12.185595 0 0 1-12.482555-12.195835 13.209595 13.209595 0 0 1 3.645439-9.093116c1.16736-1.269759 3.194879-3.020799 6.236157-5.355518 3.215359-2.426879 5.488638-4.474878 6.737918-6.082558 1.08544-1.402879 1.638399-2.764799 1.638399-4.044798a5.222398 5.222398 0 0 0-1.802239-4.075519 6.522877 6.522877 0 0 0-4.587518-1.720319c-2.764799 0-5.324798 2.150399-7.608317 6.399998l-0.8704 1.638399-6.789117-4.055039 0.778239-1.505279c3.553279-6.922237 8.632317-10.434556 15.103994-10.434556 3.727359 0 7.055357 1.372159 9.861116 4.075519 2.836479 2.723839 4.270078 6.000638 4.270079 9.727996 0 2.867199-0.93184 5.621758-2.764799 8.161276-1.720319 2.375679-4.403198 4.945918-7.987197 7.679997M808.379581 479.559437h-18.892793V498.278149h-8.038397v-48.27134h8.038397v21.585911h18.892793v-21.585911h7.987196V498.278149h-7.987196zM863.532199 474.152719c0-5.058558-1.607679-9.113596-4.915198-12.410875a16.312313 16.312313 0 0 0-12.062716-4.894718c-4.638718 0-8.499197 1.638399-11.837435 5.017598a16.435193 16.435193 0 0 0-4.956158 12.093435c0 4.997118 1.576959 9.082876 4.812798 12.472315 3.235839 3.379199 7.147517 5.017598 11.980795 5.017598 4.710398 0 8.642557-1.638399 12.001276-5.017598 3.348479-3.358719 4.976638-7.383037 4.976638-12.287995m-4.403199 21.954551a25.57951 25.57951 0 0 1-12.759035 3.307519c-4.403198 0-8.560637-1.1264-12.390395-3.348479a24.34047 24.34047 0 0 1-9.072636-9.256956 25.88671 25.88671 0 0 1-3.307519-12.840955 25.00607 25.00607 0 0 1 12.523515-21.749751c3.860478-2.201599 8.099837-3.317759 12.615675-3.317759a24.71935 24.71935 0 0 1 21.647352 12.574715c2.201599 3.891198 3.307519 8.161277 3.307518 12.687355 0 4.567038-1.1264 8.857596-3.338238 12.748795a24.20735 24.20735 0 0 1-9.215997 9.195516M923.651215 498.278149l-8.069117-29.327348-11.059196 29.337588h-3.297278l-11.161596-29.327348-7.905277 29.327348h-8.243197l13.465595-49.39774h3.379199l12.103675 31.682548 11.878395-31.682548h3.440639L931.843211 498.288389zM568.712477 162.529164c37.068785-43.601903 32.634867-115.752914 32.634866-147.169221h58.900457c5.969918 64.020454-7.260157 95.539162-7.260157 95.539161C641.907967 140.410773 602.606863 162.529164 568.712477 162.529164M512.904499 397.22987c19.199992 3.983358 24.45311 5.263358 26.419189 5.806078 11.263995 3.051519 16.138234 5.509118 13.414395 9.912316-23.029751 4.546558-26.972149 8.847356-47.206381 23.74655 0 0 3.788798-12.216315 6.737917-33.751026 0.26624-1.925119 0.4608-3.819518 0.63488-5.713918M725.804254 369.592121c-18.892792 17.059833-32.143347 23.83871-63.395815 27.873269-5.939198 0.768-7.628797 1.14688-11.929595 1.638399-6.993917 0 1.279999-14.755834 75.32541-29.511668M653.888762 378.521397c3.061759-2.119679 50.7187-27.033589 95.477722-40.243184-4.935678 9.953276-11.110396 19.189752-18.780152 26.86975-59.996136 11.806715-88.893404 21.811191-76.69757 13.373434M650.192124 355.778366c8.949756-7.423997 87.121885-69.079012 118.865872-91.187163-4.249598 11.755515-4.055038 24.92415-6.901757 37.079025a176.926649 176.926649 0 0 1-10.485756 31.713267c-43.386863 12.339195-95.467482 34.242546-103.536598 36.730866-20.142072 6.205438-7.362557-6.522877 2.058239-14.335995M546.512165 379.637557c10.751996 8.601597 13.731835 17.479673 2.908159 16.558073-8.601597-0.72704-15.534074-0.2048-35.174386-5.683197 0.26624-8.857596-0.90112-26.14271-2.058239-30.945268 19.087352 9.052156 32.399347 18.524153 34.334706 20.070392M931.740811 276.090718c-26.828789-39.239664-79.892448-15.984634-86.036445-65.843173a70.297572 70.297572 0 0 0-13.506555-4.454399c-7.587837-1.617919-15.810554-1.525759-23.009271 1.64864-6.789117 3.000319-12.369915 7.987197-17.059833 13.721594-9.215996 11.284475-15.462394 24.88319-21.073911 38.338545-25.27231 17.418233-120.084432 85.882846-128.798669 91.607003-9.328636 6.143998-30.463988 28.651509-16.670713-1.495039 3.543039-7.751677 36.311025-80.916448 46.192621-98.8774 6.123518-11.130876 47.431661-92.805083 76.71805-149.913541l0.08192 2.12992c0.08192 1.638399 0.17408 3.246079 0.245759 4.925438l0.36864 7.362557c2.457599 53.985258 18.237433 63.047655 17.991673 105.144278 11.939835-17.510393 27.678709-32.235507 49.35678-33.464307 9.523196-0.53248 18.769912 1.382399 27.545589 4.741118 60.313576-12.451835 89.651164 30.781428 87.654365 84.428766M748.229845 92.293032s-81.080288 144.179142-114.503634 219.596712c-18.472953 41.676783-21.094392 58.347497-28.999669 53.452779-3.809278-2.344959-6.553597-42.977263-10.239996-83.466207-4.628478-50.6163-9.871356-103.444439-10.383356-109.045716 69.560292-7.884797 99.35868-54.783978 99.358681-156.508098h67.379173c-0.96256 30.054388-3.092479 50.81086-2.611199 75.98077M594.066706 363.079484C589.090068 378.900277 501.794103 242.411372 369.319276 139.919253c2.426879-7.956477 9.932796-39.383024 11.468796-46.151662l0.2048-0.767999-0.02048 0.01024c5.478398-24.24831 8.089597-50.27838 8.089596-77.649889H449.047884c0 16.752633 0.70656 32.419827 2.324479 46.919661l0.04096 0.31744 0.16384 1.914879-0.01024-0.64512c8.499197 72.345571 40.345584 114.380754 121.896912 109.895636 2.785279-0.16384 2.826239-0.12288 5.509117-0.37888 3.921918 48.93694 18.094073 180.121528 15.093754 189.695925M534.19345 318.177102c13.025275 18.431993 39.864304 49.12126 36.546546 52.162539-4.300798 3.932158-23.357431-1.474559-35.512306-6.850558-1.18784-0.53248-12.943355-5.672958-23.562231-11.325435-12.441595-45.015022-51.896299-76.369889-73.41053-85.544926-27.381749-11.673595-85.995486-20.070392-133.058507 12.666875 8.939516-12.625915 16.476153-45.608942-0.37888-75.21277-14.847994-26.08127-41.338863-64.450534-48.046061-80.117728-11.673595-27.299829 5.550078-45.332462 47.790061-88.934364l16.875513 14.950394 17.407993 15.411194c-17.326073 17.510393-14.264314 28.446709-11.571195 38.154224 3.205119 11.509755 37.109745 40.816624 37.109745 40.816624s105.809878 83.251167 169.809852 173.823931M251.497883 366.591802c-17.326073 5.734398-32.071667 19.496952-43.458542 36.075506a162.262975 162.262975 0 0 0-23.173111 51.845099c-3.399679 13.926394-4.157438 26.398709-1.863679 34.652146 0 0 15.820794-58.327017 71.608291-73.103331a129.597388 129.597388 0 0 1-3.102719-49.46942M184.87647 454.502167a162.273215 162.273215 0 0 1 23.162871-51.834859c11.386875-16.578553 26.13247-30.330868 43.468782-36.075506a130.211788 130.211788 0 0 0-0.737279 26.07103c-65.587174 28.405749-67.768293 96.501721-67.768293 96.501721-2.293759-8.253437-1.535999-20.725752 1.873919-34.662386M313.757058 711.915184c50.32958 3.624959 112.435155-8.826876 139.468745-31.559667l11.182075 15.226874c-6.932477 8.110077-13.445115 12.113915-20.602872 16.619513-42.475503 13.230075-94.003162 7.198717-130.047948-0.28672M431.834451 720.87518c-27.135989 14.100474-61.880295 24.73983-98.9798 28.559349-70.922212-18.708473-107.038677-49.20318-125.04059-72.222691 15.718394 13.844474 34.979826 23.203831 55.848938 29.009908 21.657591 6.748157 101.785559 29.143028 168.171452 14.643194M179.203512 726.691498c-18.687993-24.26879-35.143666-69.754852-17.510393-120.063952 5.355518-15.257594 12.001275-27.443189 18.862073-37.119985a99.34844 99.34844 0 0 1 22.640631-24.26879c10.751996-8.314877 23.111671-14.755834 36.812785-15.585274 16.875513-1.00352 33.320947 4.741118 49.66398 8.089597 16.609273 3.379199 33.515507 5.488638 50.47294 4.556798 28.119029-1.546239 56.125418-12.513275 81.571807-29.132788 11.868155-7.751677 23.244791-18.073593 32.542707-28.917749l1.1264-0.88064 0.45056-0.389119-1.41312 0.767999s18.442233-55.183338-33.177586-72.151011c-28.979188-9.523196-103.567319 6.512637-124.293071-41.799663 0 0 23.388151 29.695988 81.919967 24.78079 102.604759-8.632317 98.201561 50.48318 93.020123 72.724451 15.831034-18.790392 23.367671-40.499184 25.88671-65.791974 5.775358-57.866217-32.563187-113.182675-68.607973-133.007307-17.663993-9.707516-67.737573-31.170548-131.071947 14.796794-14.561274 10.547196-25.03679 24.95487-32.921587 40.017904a129.597388 129.597388 0 0 0-10.567676 92.753883c-55.787498 14.766074-71.608291 73.093091-71.608291 73.093091-2.293759-8.253437-1.535999-20.715512 1.873919-34.662386a112.056275 112.056275 0 0 0-25.95839 15.667194c-0.512 0.3072-1.01376 0.62464-1.515519 0.952319-36.843505 23.79775-60.497896 66.908133-64.634854 110.387156-4.403198 46.366701 15.595514 91.504603 50.83134 121.006032 11.263995 9.420796 23.193591 17.428473 35.604465 24.16639z m140.103624-223.64151c-0.34816-0.4608-0.6144-0.94208-0.901119-1.4336a7.884797 7.884797 0 0 0 7.352317-1.372159c3.440639-2.764799 4.014078-7.843837 1.279999-11.325436a7.884797 7.884797 0 0 0-4.904958-2.897919c4.915198-3.194879 11.499515-2.222079 15.216634 2.498559a11.755515 11.755515 0 0 1-1.843199 16.383994 11.427835 11.427835 0 0 1-16.199674-1.863679zM171.226556 615.270103c1.351679-3.696639 2.795519-7.167997 4.300798-10.475516-2.795519 15.831034-0.32768 33.085427 6.696957 47.718381 7.178237 18.483193 35.717106 70.143972 136.437706 99.48156C276.186514 754.800287 231.396771 748.666529 191.511987 728.934057 173.110715 710.205105 152.999363 665.282243 171.226556 615.270103"  horiz-adv-x="1024" />
      
      <glyph glyph-name="shibai" unicode="&#58998;" d="M512 896C229.205333 896 0 666.794667 0 384s229.205333-512 512-512c282.752 0 512 229.205333 512 512S794.752 896 512 896m0-64c247.04 0 448-200.96 448-448S759.04-64 512-64 64 136.96 64 384 264.96 832 512 832M533.333333 661.333333h-42.666666a10.666667 10.666667 0 0 1-10.666667-10.666666v-362.666667c0-5.888 4.778667-10.666667 10.666667-10.666667h42.666666a10.666667 10.666667 0 0 1 10.666667 10.666667v362.666667a10.666667 10.666667 0 0 1-10.666667 10.666666M512 192a32 32 0 1 1 0-64 32 32 0 0 1 0 64"  horiz-adv-x="1024" />
      
      <glyph glyph-name="fanhuidingbu" unicode="&#58995;" d="M234.669984 261.801012m18.856181 18.856181l233.816642 233.816642q18.856181 18.856181 37.712362 0l0 0q18.856181-18.856181 0-37.712361l-233.816643-233.816643q-18.856181-18.856181-37.712361 0l0 0q-18.856181 18.856181 0 37.712362ZM513.747679 533.330016m18.856181-18.856181l233.816642-233.816642q18.856181-18.856181 0-37.712362l0 0q-18.856181-18.856181-37.712362 0l-233.816642 233.816643q-18.856181 18.856181 0 37.712361l0 0q18.856181 18.856181 37.712362 0Z"  horiz-adv-x="1024" />
      
      <glyph glyph-name="gouwuche" unicode="&#58996;" d="M407.573333 157.76a52.117333 52.117333 0 0 1-52.202666-52.224 52.117333 52.117333 0 0 1 52.202666-52.202667 52.117333 52.117333 0 0 1 52.224 52.202667 52.117333 52.117333 0 0 1-52.224 52.224zM720.853333 157.76a52.117333 52.117333 0 0 1-52.224-52.224A52.117333 52.117333 0 0 1 720.853333 53.333333a52.202667 52.202667 0 1 1 0 104.426667zM783.786667 157.76H392.32c-34.709333 0-65.28 27.584-69.418667 62.848l-40.917333 289.066667-23.189333 135.104c-1.429333 11.84-12.16 21.482667-22.549334 21.482666H205.44A24.106667 24.106667 0 0 0 181.333333 690.453333 24.106667 24.106667 0 0 0 205.44 714.666667h30.677333c35.114667 0 66.069333-27.584 70.336-62.869334l23.189334-134.570666 41.066666-290.346667c1.28-11.2 11.52-20.693333 21.632-20.693333h391.424c13.333333 0 24.106667-10.816 24.106667-24.234667a24.106667 24.106667 0 0 0-24.106667-24.192zM425.045333 262.186667a23.317333 23.317333 0 0 0-23.04 22.101333c-0.981333 13.12 8.597333 24.704 21.418667 25.6l314.026667 23.914667c11.562667 0.128 21.269333 9.386667 22.506666 20.053333l36.458667 215.573333c0.853333 7.978667-1.237333 16.853333-5.845333 22.250667a14.165333 14.165333 0 0 1-11.093334 5.269333H378.538667c-12.821333 0-23.146667 10.666667-23.146667 23.914667s10.453333 24.192 23.146667 24.192h400.725333a59.733333 59.733333 0 0 0 45.781333-21.333333c13.568-15.829333 19.669333-37.973333 17.066667-61.12l-36.48-215.68c-3.968-33.557333-33.216-60.821333-66.56-60.821334l-312.277333-23.786666c-0.618667 0-1.237333-0.149333-1.728-0.149334z"  horiz-adv-x="1024" />
      
      <glyph glyph-name="meishimeike-huiyuanshangcheng" unicode="&#58990;" d="M612.274 456.217c9.449 10.844 25.898 11.975 36.742 2.527 10.12-8.819 11.78-23.736 4.275-34.502l-1.749-2.24-115.394-132.436c-9.972-11.444-27.365-11.847-37.883-1.475l-2.008 2.218-106.988 132.436c-9.038 11.188-7.295 27.584 3.892 36.622 10.442 8.436 25.421 7.48 34.72-1.781l1.903-2.111 87.487-108.288 95.003 109.03zM564.292 48.285a83.333 83.333 0 0 1 12.592 12.592l251.134 311.605a41.667 41.667 0 0 1 4.292 45.812L722.255 623.867a83.333 83.333 0 0 1-73.468 44.002H375.213a83.333 83.333 0 0 1-73.468-44.002L191.69 418.294a41.667 41.667 0 0 1 4.292-45.812l251.134-311.605c28.88-35.834 81.342-41.472 117.176-12.592z m-32.682 40.553c-12.598-10.153-30.677-8.93-41.81 2.335l-2.132 2.387-246.814 306.226 106.809 199.5a31.252 31.252 0 0 0 24.434 16.345l3.116 0.155h273.574a31.252 31.252 0 0 0 25.942-13.827l1.608-2.674 106.788-199.499L536.332 93.56a31.25 31.25 0 0 0-3.037-3.261l-1.685-1.461z"  horiz-adv-x="1024" />
      
      <glyph glyph-name="meishimeike-lijidiancan" unicode="&#58993;" d="M199.5 141.184m27.838 0l590.157 0q27.838 0 27.838-27.838l0 0.001q0-27.838-27.838-27.838l-590.157 0q-27.838 0-27.838 27.838l0-0.001q0 27.838 27.838 27.838ZM522.417 582.947c-180.21 0-326.689-141.054-326.689-315.553 0-14.383 11.66-26.042 26.042-26.042h601.293c14.383 0 26.042 11.66 26.042 26.042 0 174.5-146.479 315.553-326.688 315.553z m6.584-52.158c137.88-3.11 250.331-103.644 266.123-232.273l0.543-5.078H249.146l0.564 5.078C265.752 429.187 381.547 530.863 522.417 530.863l6.584-0.074zM522.417 701.709c56.616 0 103.987-40.604 103.987-92.852 0-25.197-11.236-48.61-30.492-65.763-10.739-9.567-27.2-8.616-36.767 2.123-9.567 10.74-8.616 27.2 2.123 36.767 8.506 7.577 13.052 17.052 13.052 26.873 0 21.548-22.423 40.768-51.903 40.768s-51.904-19.22-51.904-40.768c0-8.86 3.703-17.442 10.667-24.594l2.764-2.612c10.84-9.452 11.966-25.903 2.514-36.743-9.452-10.84-25.902-11.966-36.742-2.514-19.73 17.202-31.286 40.91-31.286 66.463 0 52.248 47.37 92.852 103.987 92.852z"  horiz-adv-x="1024" />
      
      <glyph glyph-name="meishimeike-quanbao" unicode="&#58994;" d="M675.9 654.284l0.727-1.239 82.417-142.75c40.573-7.3 71.356-42.766 71.356-85.415v-74.52c0-11.757-9.537-21.288-21.303-21.288h-3.845c-18.778 0-34-15.212-34-33.977 0-18.614 15.1-33.703 33.726-33.703l4.013 0.019c11.807 0.058 21.41-9.49 21.41-21.289v-70.71c0-47.935-38.885-86.794-86.852-86.794H286.352c-47.968 0-86.852 38.859-86.852 86.793v69.404c0 11.758 9.538 21.29 21.303 21.29h7.038c19.286 0 34.92 15.623 34.92 34.896 0 19.357-15.653 35.075-35.023 35.168l-7.038 0.034c-11.725 0.057-21.2 9.571-21.2 21.288V424.88c0 41.285 28.846 75.838 67.494 84.63l61.61 106.706c23.726 41.098 76.011 55.436 117.36 32.448l1.25-0.709 23.448-13.536 87.374 50.445c41.098 23.728 93.547 10.003 117.863-30.58z m54.288-186.95H293.813c-23.323 0-42.23-19.188-42.23-42.858v-51.846l0.814-0.159c33.603-6.843 58.983-36.694 59.556-72.641l0.01-1.243c0-36.496-25.655-66.912-59.662-73.685l-0.718-0.135v-47.91c0-23.432 18.53-42.473 41.531-42.851l0.7-0.006h436.373c23.323 0 42.23 19.188 42.23 42.857v49.767l-1.106 0.266c-31.407 7.862-54.793 36.397-55.338 70.566l-0.01 1.223c0 34.834 23.652 64.061 55.546 72.045l0.908 0.22v53.532c0 23.432-18.53 42.473-41.531 42.851l-0.7 0.006h0.002zM568.894 267.28c11.766 0 21.303-11.66 21.303-26.042 0-14.177-9.267-25.708-20.8-26.035l-0.503-0.006h-116.06c-11.765 0-21.303 11.659-21.303 26.041 0 14.177 9.267 25.708 20.8 26.035l0.503 0.007h116.06z m0 100.283c11.766 0 21.303-11.846 21.303-26.458 0-14.404-9.267-26.12-20.8-26.452l-0.503-0.007h-116.06c-11.765 0-21.303 11.846-21.303 26.459 0 14.403 9.267 26.12 20.8 26.451l0.503 0.007h116.06z m6.98 282.377h7.41l-61.89-41.212 135.952-78.895H699.5l-66.386 105.543c-11.581 18.414-29.674 24.533-49.83 14.247l-7.41 0.317z m-204.64-58.01l-0.358-0.623L324.5 509h270.833l-166.15 98.295c-20.215 11.96-46.003 5.064-57.95-15.365z"  horiz-adv-x="1024" />
      
      <glyph glyph-name="fenxiang" unicode="&#58992;" d="M510.592 810.666667c17.237333 0 31.232-14.677333 31.232-32.853334 0-16.597333-11.733333-30.293333-27.008-32.469333l-4.224-0.298667H274.773333c-67.968 0-122.88-52.309333-126.72-117.461333l-0.256-7.253333v-472.618667c0-66.048 52.522667-120.704 119.466667-124.544l7.509333-0.213333h474.538667c67.968 0 122.88 52.309333 126.72 117.461333l0.256 7.253333V384c0 18.133333 13.952 32.853333 31.189333 32.853333 15.786667 0 28.885333-12.373333 30.933334-28.416L938.666667 384v-236.288a189.909333 189.909333 0 0 0-180.48-190.165333L749.226667-42.666667H274.730667c-101.248 0-184.533333 80.042667-189.184 181.333334L85.333333 147.754667V620.288a189.909333 189.909333 0 0 0 180.48 190.165333L274.773333 810.666667h235.861334zM864.170667 810.666667a74.666667 74.666667 0 0 0 74.410666-68.522667l0.256-6.144v-137.216a32 32 0 0 0-63.701333-4.352l-0.298667 4.352V736a10.666667 10.666667 0 0 1-8.234666 10.368l-2.432 0.298667H736a32 32 0 0 0-4.352 63.701333L736 810.666667h128.170667zM441.898667 396.544l420.138666 378.282667 42.837334-47.530667-420.138667-378.282667a32 32 0 1 0-42.837333 47.530667z"  horiz-adv-x="1024" />
      
      <glyph glyph-name="tabbar-wode-sel" unicode="&#58989;" d="M528 704c185.352 0 336-150.648 336-336S713.352 32 528 32 192 182.648 192 368s150.648 336 336 336zM600 444.685C600 468.607 619.393 488 643.315 488c23.923 0 43.315-19.393 43.315-43.315 0-23.923-19.392-43.315-43.315-43.315-23.922 0-43.315 19.392-43.315 43.315zM360 444.685C360 468.607 379.393 488 403.315 488c23.923 0 43.315-19.393 43.315-43.315 0-23.923-19.392-43.315-43.315-43.315-23.922 0-43.315 19.392-43.315 43.315zM665.76 311.874c12.888-8.38 16.8-25.69 8.4-38.548-31.68-49.965-86.9-80.151-146.16-79.9-59.26-0.251-114.48 29.935-146.16 79.9-8.295 12.969-4.543 30.185 8.4 38.548 13 8.276 30.257 4.533 38.64-8.38 21.515-33.85 58.943-54.31 99.12-54.184 40.32 0 77.28 20.113 99.12 54.184 8.4 12.858 25.752 16.76 38.64 8.38z"  horiz-adv-x="1024" />
      
      <glyph glyph-name="icon-yuyue" unicode="&#58991;" d="M512.036 690.659c88.308 0 168.342-35.857 226.25-93.767 58.008-57.908 93.839-137.968 93.839-226.37 0-88.309-35.83-168.343-93.743-226.25-58.005-58.008-138.038-93.887-226.346-93.887-88.403 0-168.46 35.832-226.395 93.79-57.91 58.004-93.766 138.039-93.766 226.348 0 88.401 35.856 168.46 93.766 226.369 57.934 57.933 137.992 93.767 226.395 93.767z m0-49.483c-74.752 0-142.44-30.3-191.41-79.268-48.969-48.948-79.269-116.636-79.269-191.385 0-74.777 30.3-142.442 79.27-191.364 48.97-48.97 116.657-79.292 191.409-79.292 74.727 0 142.441 30.322 191.41 79.245 48.921 48.97 79.196 116.634 79.196 191.41 0 74.75-30.275 142.438-79.196 191.433-48.969 48.943-116.683 79.221-191.41 79.221z m0-127.205c6.816 0 13.003-2.776 17.486-7.258 4.377-4.377 7.128-10.382 7.25-17.02l0.005-0.464-0.001-93.965h110.512c6.788 0 12.93-2.767 17.373-7.243a24.753 24.753 0 0 0 7.19-17.498 24.76 24.76 0 0 0-7.195-17.497c-4.343-4.374-10.305-7.119-16.907-7.241l-0.461-0.005H512.165a24.33 24.33 0 0 0-14.36 4.666 24.787 24.787 0 0 0-8.96 12.284 25.07 25.07 0 0 0-1.568 8.18l-0.007 0.573V489.229c0 6.826 2.774 13.013 7.258 17.493a24.698 24.698 0 0 0 17.508 7.249zM299.859 719.935a24.654 24.654 0 0 0 18.14 5.39 24.7 24.7 0 0 0 16.652-9.014c4.302-5.295 6.054-11.848 5.402-18.154-0.652-6.3-3.702-12.353-9.003-16.663l-95.509-77.576a24.654 24.654 0 0 0-18.148-5.412 24.69 24.69 0 0 0-16.668 9.013c-4.285 5.285-5.962 11.864-5.255 18.203 0.713 6.384 3.845 12.525 9.167 16.853z m406.173 5.39a24.711 24.711 0 0 0 18.157-5.39l95.197-77.36c5.33-4.325 8.462-10.461 9.174-16.841 0.709-6.343-0.974-12.927-5.262-18.215-4.3-5.304-10.353-8.36-16.654-9.013-6.3-0.652-12.848 1.1-18.138 5.412l-95.532 77.576a24.736 24.736 0 0 0-9.003 16.692c-0.647 6.298 1.105 12.838 5.426 18.125a24.635 24.635 0 0 0 16.635 9.013z"  horiz-adv-x="1024" />
      
      <glyph glyph-name="icon-baijie" unicode="&#58927;" d="M871.829 442.286c-15.515 16.371-31.886 31.971-48.943 46.714-15.943 13.886-23.915 29.486-23.057 52.029 1.628 54.857-0.772 109.371 1.2 164.314 1.2 33.6-22.286 56.914-45.772 60.257-20.743 2.829-43.028 2.486-63.686-1.629-32.657-6.942-41.4-20.914-43.8-55.714-0.771-11.057-2.4-21.686-4.371-40.114-17.486 17.657-29.486 31.114-43.029 43.028-54.514 49.2-108.685 53.229-162.085 4.115-96.943-89.057-192.086-180.429-287.657-270.943-19.543-18.857-30.686-60.257-15.515-80.743 11.572-15.6 32.657-25.371 51-34.029 12.772-6.171 17.915-12.685 17.915-27 0.771-71.657 2.828-143.828 3.942-215.485 0.772-54.086 30.686-86.057 82.8-86.4 141.343-0.429 282.772-0.429 423.686 0 57.343 0 89.229 34.371 88.8 94.628-0.428 56.915-1.2 113.486-1.628 170.4C801.2 313.2 802.057 310.8 845 328.8c53.486 22.886 68.571 68.4 26.829 113.486zM563.943 211.629c-19.543-30.686-37.029-62.229-39.857-100.372-1.2-18.428-13.972-25.8-29.057-21.686-25.115 6.515-50.572 13.886-73.286 26.229-28.629 15.6-28.629 20.486-17.486 52.886-47.828-14.315-47.828-14.315-70.886 31.543-13.971 27.428-13.971 28.285 8.743 47.485 29.829 25.372 59.743 51.172 88.8 77.4 11.143 9.857 21.943 11.057 33.429 2.486 31.457-23.314 62.914-46.714 93.943-70.886 20.4-15.6 20.057-22.543 5.657-45.085z m99.171 233.485c-24.257-28.285-48.171-57.343-73.628-84.771-9.943-11.057-13.543-19.286-6.772-35.229 8.4-20.914 15.172-44.657-2.828-69.685-41.4 32.4-81.257 63.514-122.657 95.485 17.914 18 38.657 25.8 55.714 20.057 37.028-12.685 52.543 12.686 71.314 34.8 17.914 20.915 35.829 41.743 54.172 62.229 7.542 8.571 17.142 17.229 28.285 6.943 12.343-10.972 3.943-20.829-3.6-29.829z"  horiz-adv-x="1024" />
      
      <glyph glyph-name="icon-canying" unicode="&#58928;" d="M176.717 183.632h670.566c11.97 0 23.94 5.418 33.519 16.233 9.58 10.815 14.378 24.34 14.378 37.844 0 16.233-4.799 27.049-14.378 37.864-9.58 10.815-19.16 16.233-33.52 16.233h-4.798c-9.58 73-35.91 137.933-79.008 194.699-43.117 56.786-95.795 94.65-158.071 116.28 2.39 5.419 2.39 10.816 2.39 13.525 0 29.758-9.58 56.786-28.738 75.729-16.77 21.63-40.709 32.446-67.057 32.446s-50.288-10.815-67.057-32.467c-16.768-21.61-28.738-45.95-28.738-75.687v-16.233c-61.474-19.222-116.5-58.77-158.053-113.593-43.117-56.786-67.056-121.679-76.636-194.699h-4.799c-7.189 0-11.97-2.688-19.159-5.418-7.189-2.688-11.97-8.106-14.36-10.815-4.799-5.397-7.19-10.815-9.58-16.213-2.994-6.718-4.633-14.106-4.798-21.63a56.984 56.984 0 0 1 14.378-37.865c9.58-10.815 21.531-16.233 33.52-16.233M512 670.408c11.97 0 23.958-5.418 33.537-16.233 9.58-10.816 14.36-21.631 14.36-37.844v-2.73c-9.579 0-16.768 2.71-23.94 2.71H488.06c-7.189 0-16.787-2.689-23.958-2.689v2.688a56.984 56.984 0 0 0 14.379 37.865c9.58 10.815 21.53 16.233 33.519 16.233m-201.17-289.37c14.379 27.05 35.928 51.39 57.477 73.02 21.55 21.631 50.288 35.156 79.027 43.262h7.189c7.19 0 11.97-2.688 16.769-8.106 4.78-5.398 7.189-10.816 7.189-18.922 0-5.418 0-8.127-2.409-13.525-2.39-2.688-4.78-8.106-7.17-10.815-2.41-2.709-7.19-5.418-9.58-5.418-14.379-5.397-28.739-10.815-43.117-21.63-13.303-7.671-25.433-17.711-35.928-29.738-11.472-10.605-21.201-23.423-28.738-37.864-2.39-2.689-2.39-5.418-4.781-8.107-2.39-2.709-4.799-5.418-7.19-5.418-2.39-2.688-7.188-2.688-9.579-2.688-7.189 0-11.97 2.688-16.768 8.106-4.781 5.398-7.171 10.816-7.171 18.922s2.372 13.524 4.78 18.922m536.453-251.484H176.717c-11.97 0-23.94-5.419-33.519-16.234-9.58-10.815-14.378-21.63-14.378-37.844 0-16.233 4.78-27.048 14.378-37.864 9.561-10.815 21.531-16.233 33.52-16.233h670.565c11.97 0 23.94 5.418 33.519 16.233 9.58 10.816 14.378 24.34 14.378 37.844 0 16.233-4.78 27.049-14.378 37.864-9.561 10.815-21.531 16.234-33.52 16.234"  horiz-adv-x="1024" />
      
      <glyph glyph-name="icon-baomu" unicode="&#58933;" d="M809.597 142.49c-28.93 118.097-123.17 210.672-242.375 237.065 23.064 9.195 44.305 22.827 63.724 41.057 40.105 37.808 61.11 83.857 63.011 138.07 0 0.477 0 0.952 0.08 1.428 0 0.555 0 1.109 0.078 1.664 0.08 1.744 0.08 3.487 0.08 5.231 0 4.36-0.159 8.718-0.476 13.077v0.238c-0.08 1.823-0.238 3.646-0.396 5.468-0.08 0.476-0.08 1.03-0.159 1.507-0.079 0.555-0.158 1.03-0.158 1.585-2.932 27.82-11.493 53.976-25.6 78.467-17.834 30.832-42.246 55.165-73.078 73.077-21.717 12.603-44.86 20.686-69.431 24.412l-3.566 0.476c-0.556 0.08-1.03 0.159-1.586 0.238a199.317 199.317 0 0 1-25.839 1.664H492.875c-55.323 0-102.562-19.577-141.716-58.73-39.154-39.155-58.73-86.394-58.73-141.717 0-36.776 8.956-70.54 26.79-101.373 17.912-30.831 42.245-55.164 73.076-73.077 8.64-4.993 17.438-9.273 26.473-12.84-118.89-26.552-212.971-118.969-241.822-236.987a109.744 109.744 0 0 1-5.072-25.046c-0.238-2.933-0.396-5.945-0.396-8.957 0-59.92 48.586-108.427 108.427-108.427H706.56c59.92 0 108.428 48.586 108.428 108.427 0 3.012-0.159 6.024-0.396 8.957-0.635 8.64-2.378 17.041-4.994 25.046zM384.924 458.023c-29.88 29.88-44.782 66.102-44.782 108.744 0.476 0 0.951 0 1.506-0.079 32.577-7.213 144.966-22.51 189.431 97.648 3.012 6.579 5.944 13.553 8.64 20.845 16.802-21.717 23.222-47.952 23.222-47.952 18.15-68.164 65.072-72.205 83.46-71.017-0.079-12.047-1.426-23.777-4.042-35.111-2.695-11.493-6.579-22.272-11.73-32.338a180.11 180.11 0 0 0-17.992-28.295c-6.816-8.798-14.663-16.645-23.54-23.54-8.798-6.896-18.23-12.84-28.296-17.992-10.065-5.152-20.766-9.036-32.337-11.73-11.494-2.695-23.382-4.043-35.667-4.043-42.008 0.078-77.992 14.98-107.873 44.86z m-14.425-330.355H230.606a274.757 274.757 0 0 0 42.641 88.614c13.791 20.132 31.07 38.123 51.202 53.5a273.077 273.077 0 0 0 46.13 29.801v-1.664c0.237 0.079 0.476 0.237 0.713 0.316V127.748l-0.713 0.396v-0.476h-0.08z m67.132 0.001V319.398c18.31-6.262 37.728-9.432 58.177-9.432 21.162 0.158 40.898 3.408 59.128 9.748 0.872-0.158 1.744-0.316 2.615-0.555v-191.57h-119.92v0.08z m186.34 0V297.76a284.302 284.302 0 0 0 21.717-12.84c37.331-22.747 67.371-53.976 86.472-90.514 12.206-20.687 21.797-43.038 28.295-66.737H623.971z"  horiz-adv-x="1024" />
      
      <glyph glyph-name="icon-chaoshi" unicode="&#58934;" d="M412.744 730.338c102.041 0 185.037-82.996 184.985-184.985 0-18.618-2.765-36.603-7.907-53.565l266.554 0.002c21.708 0 39.47-17.762 39.47-39.47 0-3.947 0-5.92-1.974-9.867L810.986 106.96c-13.814-53.284-61.178-88.807-114.462-88.807h-369.04c-55.258 0-102.622 37.497-114.462 88.807l-82.887 335.492c-5.92 21.708 7.894 43.416 29.603 47.363 0 1.755 3.118 1.95 6.583 1.971l0.522 0.002h0.263l68.56-0.001c-5.141 16.962-7.907 34.947-7.907 53.565 0 101.99 82.996 184.985 184.985 184.985zM511.017 373.381c-21.708 0-39.47-17.761-39.47-39.47v-157.878c0-21.708 17.762-39.47 39.47-39.47s39.47 17.762 39.47 39.47V333.91c0 21.709-17.762 39.47-39.47 39.47zM311.696 367.46c-21.709-5.92-33.55-27.628-27.63-47.363l41.444-151.958c5.92-21.708 27.629-33.55 47.363-27.629 21.709 5.92 33.55 27.629 27.63 47.364l-41.444 151.958c-3.947 21.708-25.655 33.549-47.363 27.629zM710.339 367.46c-21.709 5.921-43.417-5.92-47.364-27.628l-41.443-151.958c-5.92-21.708 5.92-43.417 27.629-47.364 21.708-5.92 43.416 5.92 47.363 27.629l41.443 151.958c5.92 19.735-7.894 41.443-27.628 47.364zM452.513 730.81c6.4 6.245 13.73 11.406 21.678 15.225a80.383 80.383 0 0 0 25.291 7.433 83.362 83.362 0 0 0 9.136 0.516c6.09 0 11.923-0.774 17.755-2.374-4.387-10.22-10.116-16.878-15.278-22.091-6.503-6.297-13.832-11.407-21.678-15.175a82.638 82.638 0 0 0-25.342-7.38 83.57 83.57 0 0 0-9.188-0.517h-1.445a201.093 201.093 0 0 0 24.156-7.38c5.574 1.445 10.993 3.458 16.206 5.935 8.93 4.233 17.136 10.013 24.517 17.188 6.039 6.142 13.678 14.968 18.943 29.007a7.074 7.074 0 0 1-0.259 5.523c-0.825 1.754-2.322 3.045-4.18 3.664-8.052 2.632-16 3.923-24.31 3.923-3.2 0-6.556-0.207-10.272-0.568-10.065-1.239-19.665-4.026-28.594-8.361-9.032-4.336-17.187-10.117-24.465-17.24-5.78-5.884-13.007-14.245-18.271-27.303 3.613-0.31 7.122-0.775 10.684-1.29 4.438 9.91 10.22 16.516 14.916 21.264zM464.075 706.964a82.638 82.638 0 0 1 25.342 7.38c7.897 3.768 15.175 8.878 21.678 15.175 5.11 5.213 10.84 11.871 15.278 22.09a66.603 66.603 0 0 1-17.755 2.375c-2.84 0-5.833-0.155-9.136-0.516-8.878-1.084-17.394-3.562-25.29-7.433a82.255 82.255 0 0 1-21.679-15.226c-4.697-4.748-10.478-11.406-14.916-21.316a184.846 184.846 0 0 0 15.948-3.046h1.446c2.787 0 5.78 0.207 9.084 0.517zM370.303 679.168c-39.228-20.879-67.996-55.838-77.555-97.109-1.172-5.017 3.157-9.71 8.838-9.71 4.238 0 7.936 2.67 8.838 6.474 8.567 36.739 34.178 67.813 69.077 86.426 2.796 1.456 4.51 4.127 4.51 6.96v0.08c-0.09 6.231-7.756 10.116-13.708 6.879zM738.984 764.668c14.153 0 25.597-9.614 25.597-21.457v-20.74c0.01-8.293-5.698-15.851-14.668-19.42v-43.36c0-9.296 6.657-17.7 16.957-21.377 21.733-7.723 35.844-25.526 35.859-45.239v-197.458c0-3.449-1.647-6.755-4.578-9.185-2.947-2.44-6.931-3.804-11.082-3.804H627.63c-4.141-0.009-8.117 1.357-11.05 3.797-2.934 2.439-4.585 5.751-4.59 9.208V593.075c0 19.659 14.095 37.439 35.859 45.223 10.3 3.66 16.975 12.081 16.975 21.377v43.392c-8.965 3.56-14.679 11.102-14.687 19.387v20.757c0 11.843 11.464 21.441 25.598 21.457h63.249z"  horiz-adv-x="1024" />
      
      <glyph glyph-name="icon-faxian-sel" unicode="&#58935;" d="M778.642 546.289c-10.417-29.399-32.176-80.094-74.075-140.59-58.219-83.99-168.098-203.437-362.74-300.507 49.809-32.64 109.301-51.699 173.307-51.699C690.137 53.493 832 195.356 832 370.36c0.039 65.125-19.676 125.62-53.358 175.93zM754.375 686.638c-17.207 17.208-54.94 11.189-104.13-12.847A315.649 315.649 0 0 1 515.21 704c-175.003 0-316.866-141.863-316.866-316.866 0-45.642 9.722-89.007 27.123-128.205-32.756-59.26-43.173-105.249-23.612-124.81 17.439-17.438 55.827-11.034 105.866 13.697 0.965 0.733 2.045 1.389 3.164 1.967C684.89 330.381 748.742 596.204 749.359 598.867c0.116 0.463 0.309 0.887 0.425 1.311-0.039 0.039-0.077 0.116-0.155 0.155 17.053 40.394 19.831 71.22 4.746 86.305zM287.6 518.208c-39.807-48.558-51.176-110.929-30.093-165.086 20.57-54.354 70.967-14.962 56.976 21.871-14.17 36.915-6.654 78.625 20.408 111.955 10.156 12.723 8.037 30.137-5.036 38.657-13.074 8.52-32.098 5.326-42.255-7.397z"  horiz-adv-x="1024" />
      
      <glyph glyph-name="icon-gouwuche-sel" unicode="&#58936;" d="M413.42 123.733c-25.368 0-45.81-20.442-45.81-45.81 0-25.368 20.442-45.81 45.81-45.81 25.368 0 45.81 20.442 45.81 45.81 0 25.368-20.442 45.81-45.81 45.81z m336.07 0c-25.369 0-45.811-20.442-45.811-45.81 0-25.368 20.442-45.81 45.81-45.81 25.368 0 45.81 20.442 45.81 45.81 0 25.368-20.565 45.81-45.81 45.81z m96.235 487.218c-12.247 13.88-29.134 21.334-47.44 21.334H317.82l-1.676 9.768C311.89 676.882 281.209 704 246.273 704h-30.295C202.7 704 192 693.333 192 680.095c0-13.238 10.7-23.905 23.978-23.905h30.166c10.442 0 21.142-9.51 22.431-21.077l23.205-133.405 40.737-285.446c4.254-34.83 34.549-62.076 69.227-62.076H791.58c13.278 0 23.978 10.667 23.978 23.905 0 13.238-10.7 23.905-23.978 23.905H401.615c-10.184 0-20.24 9.382-21.658 20.563l-3.996 27.89 380.426 23.39c34.55 0 64.973 27.247 68.97 60.79l38.03 215.403c2.707 23.005-3.61 45.239-17.662 60.919z"  horiz-adv-x="1024" />
      
      <glyph glyph-name="icon-erweima" unicode="&#58941;" d="M690.12 254.12c6.544 0 12.468-2.665 16.757-6.974a23.79 23.79 0 0 0 6.94-16.835v-142.552a23.79 23.79 0 0 0-6.94-16.835c-4.289-4.31-10.213-6.974-16.757-6.974-6.543 0-12.467 2.665-16.756 6.974a23.79 23.79 0 0 0-6.94 16.835V230.31a23.79 23.79 0 0 0 6.94 16.835c4.289 4.309 10.213 6.974 16.756 6.974z m-268.305 95.034c14.91 0 28.409-6.072 38.18-15.889 9.629-9.675 15.638-22.987 15.81-37.71l0.004-0.65V118.2c0-14.98-6.043-28.543-15.814-38.36-9.63-9.676-22.88-15.713-37.532-15.886l-0.648-0.004H245.944c-14.91 0-28.409 6.072-38.18 15.89-9.629 9.674-15.638 22.987-15.81 37.71l-0.004 0.65V294.905c0 14.98 6.043 28.543 15.814 38.36 9.63 9.675 22.88 15.713 37.532 15.886l0.648 0.003h175.871z m-9.606-46.132H252.594l-0.405-0.006a14.648 14.648 0 0 1-10.01-4.328 14.788 14.788 0 0 1-4.314-10.465v-160.371l0.006-0.408a14.785 14.785 0 0 1 4.308-10.057 14.648 14.648 0 0 1 10.415-4.335H412.21l0.405 0.006a14.648 14.648 0 0 1 10.01 4.329 14.788 14.788 0 0 1 4.314 10.465v160.37l-0.006 0.408a14.785 14.785 0 0 1-4.308 10.058 14.648 14.648 0 0 1-10.415 4.334z m372.498 46.132c6.543 0 12.468-2.665 16.756-6.973a23.79 23.79 0 0 0 6.94-16.835v-237.587a23.79 23.79 0 0 0-6.94-16.835c-4.288-4.31-10.213-6.974-16.756-6.974-6.544 0-12.468 2.665-16.756 6.974a23.79 23.79 0 0 0-6.94 16.835V325.346a23.79 23.79 0 0 0 6.94 16.835c4.288 4.308 10.212 6.973 16.756 6.973z m-189.173-47.517c6.544 0 12.468-2.665 16.756-6.974a23.79 23.79 0 0 0 6.94-16.835v-190.07a23.79 23.79 0 0 0-6.94-16.834c-4.288-4.31-10.212-6.974-16.756-6.974-6.543 0-12.468 2.665-16.756 6.974a23.79 23.79 0 0 0-6.94 16.835v190.07a23.79 23.79 0 0 0 6.94 16.834c4.288 4.31 10.213 6.974 16.756 6.974zM245.944 704.05h175.871c14.91 0 28.409-6.072 38.18-15.89 9.629-9.674 15.638-22.987 15.81-37.71l0.004-0.65v-176.705c0-14.98-6.043-28.543-15.814-38.36-9.63-9.675-22.88-15.713-37.532-15.886l-0.648-0.003H245.944c-14.91 0-28.409 6.072-38.18 15.889-9.629 9.675-15.638 22.987-15.81 37.71l-0.004 0.65V649.8c0 14.981 6.043 28.543 15.814 38.36 9.63 9.676 22.88 15.713 37.532 15.886l0.648 0.004z m166.265-46.132H252.594l-0.405-0.006a14.648 14.648 0 0 1-10.01-4.329 14.788 14.788 0 0 1-4.314-10.465v-160.37l0.006-0.408a14.785 14.785 0 0 1 4.308-10.058 14.648 14.648 0 0 1 10.415-4.334H412.21l0.405 0.005a14.648 14.648 0 0 1 10.01 4.33 14.788 14.788 0 0 1 4.314 10.464V643.118l-0.006 0.408a14.785 14.785 0 0 1-4.308 10.057 14.648 14.648 0 0 1-10.415 4.335z m365.847 46.132c14.91 0 28.409-6.072 38.18-15.89 9.629-9.674 15.638-22.987 15.81-37.71l0.004-0.65v-176.705c0-14.98-6.044-28.543-15.814-38.36-9.63-9.675-22.88-15.713-37.532-15.886l-0.648-0.003H602.185c-14.91 0-28.409 6.072-38.18 15.89-9.629 9.674-15.638 22.986-15.81 37.709l-0.004 0.65V649.8c0 14.981 6.043 28.543 15.814 38.36 9.63 9.676 22.88 15.713 37.532 15.886l0.648 0.004h175.871z m-9.606-46.132H608.835l-0.405-0.006a14.648 14.648 0 0 1-10.01-4.329 14.788 14.788 0 0 1-4.314-10.465v-160.37l0.006-0.408a14.785 14.785 0 0 1 4.308-10.058 14.648 14.648 0 0 1 10.415-4.334H768.45l0.405 0.005a14.648 14.648 0 0 1 10.01 4.33 14.788 14.788 0 0 1 4.314 10.464V643.118l-0.006 0.408a14.785 14.785 0 0 1-4.308 10.057 14.648 14.648 0 0 1-10.415 4.335z"  horiz-adv-x="1024" />
      
      <glyph glyph-name="icon-faxian" unicode="&#58949;" d="M506.922 105.332c156.643 0 283.636 126.994 283.636 283.636 0 156.643-126.993 283.637-283.636 283.637-156.643 0-283.636-126.994-283.636-283.637 0-156.642 126.993-283.636 283.636-283.636z m0-56.727c-187.975 0-340.364 152.388-340.364 340.363 0 187.976 152.389 340.364 340.364 340.364 187.975 0 340.364-152.388 340.364-340.364 0-187.975-152.389-340.363-340.364-340.363z m138.58 651.239c73.232 39.175 129.894 49.19 162.34 16.743 29.063-29.063 22.532-83.133-10.468-150.313M332.937 164.953c66.437 38.77 145.238 101.63 220.86 177.253 75.562 75.561 138.38 154.294 177.159 220.697 8.421-10.97 14.61-19.686 18.565-26.147 3.543-5.788 8.602-15.446 15.178-28.974-66.591-89.855-123.523-158.415-170.795-205.682-71.02-71.027-142.415-129.91-206.347-170.636l-0.656-0.418c-14.416 7.784-24.73 13.628-30.942 17.53-5.78 3.632-13.454 9.091-23.022 16.377z m-2.48-65.965l-0.749-0.37c-67.17-32.99-121.231-39.515-150.291-10.455-32.43 32.41-22.438 88.976 16.603 162.067l34.253-59.671c-14.234-33.919-16.693-56.348-10.75-62.29 5.874-5.874 26.798-3.63 58.223 9.067l0.802 0.326M758.58 618.038c12.775 31.54 15.042 52.537 9.154 58.424-5.983 5.983-28.486 3.48-62.476-10.808"  horiz-adv-x="1024" />
      
      <glyph glyph-name="icon-gouwuche" unicode="&#58956;" d="M385.365 135.966c-27.683 0-49.991-22.308-49.991-49.991 0-27.684 22.308-49.992 49.991-49.992 27.684 0 49.992 22.308 49.992 49.992 0 27.683-22.308 49.991-49.992 49.991z m350.076 0c-27.684 0-49.992-22.308-49.992-49.991 0-27.684 22.308-49.992 49.992-49.992 27.683 0 49.992 22.308 49.992 49.992 0 27.683-22.443 49.991-49.992 49.991z m49.588 24.996H378.915c-36.016 0-67.73 28.49-72.031 64.909l-42.466 298.471-24.055 139.493c-1.478 12.229-12.632 22.173-23.383 22.173h-31.984c-13.842 0-24.996 11.154-24.996 24.996C160 724.846 171.154 736 184.996 736h31.85c36.418 0 68.536-28.49 72.97-64.908l24.056-138.956 42.6-299.815c1.344-11.557 11.96-21.367 22.443-21.367h406.114c13.842 0 24.996-11.154 24.996-24.996 0-13.842-11.154-24.996-24.996-24.996z m-374.802 99.983c-13.036 0-23.92 9.945-24.862 23.115-1.075 13.707 9.273 25.802 23.115 26.743l339.19 24.995c12.498 0.135 22.98 9.81 24.324 20.965l39.375 225.23c0.94 8.333-1.344 17.605-6.316 23.25-3.225 3.628-7.257 5.51-11.96 5.51H359.966c-13.841 0-24.995 11.153-24.995 24.995s11.288 25.265 24.995 25.265h432.858c19.083 0 36.687-7.93 49.454-22.308 14.648-16.53 21.233-39.644 18.41-63.834l-39.374-225.365c-4.3-35.075-35.881-63.565-71.897-63.565L412.108 261.08c-0.672 0-1.344-0.135-1.881-0.135z"  horiz-adv-x="1024" />
      
      <glyph glyph-name="icon-shouye-sel" unicode="&#58957;" d="M697.106 37.391H636.85c-33.519 0.678-60.45 28.094-60.45 61.128v95.422c-0.097 11.431-9.397 20.731-20.925 20.731h-89.706c-11.431 0-20.828-9.397-20.925-20.828v-95.131c0-2.131-0.29-4.166-0.775-6.103-1.453-14.144-7.653-27.222-17.922-37.394-11.722-11.528-27.803-18.406-43.594-17.825H322.2c-34.487 0-67.037 13.369-91.547 37.684-24.703 24.51-38.46 57.157-38.653 92.032v270.28c0.29 30.517 14.919 59.385 39.04 77.598L433.607 677.54c44.563 35.263 106.66 35.263 151.222 0.097L788.847 514.79c23.831-18.116 38.072-46.21 38.556-76.725v-270.862c-0.194-34.972-13.95-67.716-38.75-92.129-24.606-24.315-57.06-37.684-91.547-37.684z"  horiz-adv-x="1024" />
      
      <glyph glyph-name="icon-tingche" unicode="&#58960;" d="M455.11 327.11v-85.332c0-15.71-12.734-28.445-28.444-28.445-15.709 0-28.444 12.735-28.444 28.445V526.222c0 15.71 12.735 28.445 28.444 28.445H568.89c40.65 0 78.215-21.683 98.541-56.887 20.326-35.204 20.326-78.578 0-113.783-20.326-35.204-57.89-56.89-98.541-56.886H455.11z m201.842 365.996a28.444 28.444 0 1 0-24.177-51.485A283.22 283.22 0 0 1 512 668.444C354.9 668.444 227.556 541.1 227.556 384 227.556 226.9 354.9 99.555 512 99.555c157.098 0 284.444 127.346 284.444 284.445 0 41.899-9.045 82.489-26.283 119.609-6.621 14.248-0.438 31.167 13.81 37.788 14.248 6.622 31.167 0.439 37.788-13.81A340.145 340.145 0 0 0 853.333 384c0-188.502-152.832-341.334-341.333-341.334-188.501 0-341.333 152.832-341.333 341.334 0 188.501 152.832 341.333 341.333 341.333 50.745 0 99.982-11.093 144.952-32.227zM455.111 384h113.778c31.418 0 56.888 25.47 56.888 56.889 0 31.419-25.47 56.889-56.888 56.889H455.11V384z"  horiz-adv-x="1024" />
      
      <glyph glyph-name="icon-saoyisao" unicode="&#58965;" d="M240.302 483.556c-13.658 0-26.969 11.23-26.969 24.888V620.41c0 34.387 27.87 62.257 62.257 62.257h111.966c13.657 0 24.888-14.698 24.888-28.356 0-13.657-11.23-25.582-24.888-25.582H280.443c-6.863 0-12.479-5.615-12.479-12.479v-107.806c0-13.657-13.935-24.888-27.662-24.888z m542.356 0.069c-13.172 0.901-27.385 12.132-27.385 25.305V616.25c0 6.864-5.615 12.48-12.479 12.48H636.93c-13.173 0-24.404 12.132-25.305 25.304-0.97 14.42 10.607 28.633 24.82 28.633H748.41c34.387 0 62.257-27.87 62.257-62.257v-111.966c-0.07-14.212-13.589-25.79-28.009-24.82zM748.41 85.403H636.93c-13.173 0-24.404 12.825-25.305 25.998-0.97 14.42 10.607 30.019 24.82 30.019h106.419c6.863 0 12.479 5.616 12.479 12.48V259.14c0 13.172 12.825 24.403 25.998 25.304 14.42 0.971 29.326-10.607 29.326-24.82V147.66c-0.07-34.387-27.94-62.257-62.257-62.257z m-360.854 0H275.59c-34.387 0-62.257 27.87-62.257 62.257V259.14c0 13.172 13.52 24.403 26.692 25.304 14.42 0.971 28.632-10.607 28.632-24.82V153.9c0-6.863 5.616-12.479 12.48-12.479H387.07c13.173 0 24.404-14.906 25.305-28.078 0.97-14.42-10.538-27.94-24.82-27.94z m398.222 271.212H238.222c-13.657 0-24.889 12.618-24.889 28.148 0 15.46 11.232 28.147 24.89 28.147h547.485c13.658 0 24.89-12.618 24.89-28.147 0-15.53-11.163-28.148-24.82-28.148z"  horiz-adv-x="1024" />
      
      <glyph glyph-name="icon-weixiu" unicode="&#58967;" d="M866.741 188.348L655.937 396.45c12.865 31.235 19.903 65.475 19.903 101.268 0 149.019-122.421 269.928-273.537 269.928-47.468 0-92.073-11.958-131.032-32.87l156.117-154.06a26.154 26.154 0 0 0 0-37.345l-71.344-70.395c-10.509-10.313-27.34-10.313-37.85 0L162.18 626.935a265.658 265.658 0 0 1-33.313-129.298c0-149.019 122.422-269.927 273.538-269.927 41.923 0 81.526 9.316 117.057 25.932l206.811-204.07c37.85-37.365 99.656-37.365 137.505 0l3.045 3.005a95.46 95.46 0 0 1-0.08 135.77z"  horiz-adv-x="1024" />
      
      <glyph glyph-name="icon-wode" unicode="&#58969;" d="M510 736c193.075 0 350-156.925 350-350S703.075 36 510 36 160 192.925 160 386s156.925 350 350 350z m0-650c165.6 0 300 134.4 300 300S675.6 686 510 686 210 551.6 210 386s134.4-300 300-300z m75 375c0 27.614 22.386 50 50 50s50-22.386 50-50-22.386-50-50-50-50 22.386-50 50z m-250 0c0 27.614 22.386 50 50 50s50-22.386 50-50-22.386-50-50-50-50 22.386-50 50z m318.5-133.475c13.425-8.75 17.5-26.825 8.75-40.25-33-52.17-90.52-83.688-152.25-83.425-61.73-0.263-119.25 31.256-152.25 83.425-8.64 13.541-4.733 31.518 8.75 40.25 13.541 8.64 31.518 4.733 40.25-8.75A121.8 121.8 0 0 1 510 262.2c42 0 80.5 21 103.25 56.575 8.75 13.425 26.825 17.5 40.25 8.75z"  horiz-adv-x="1024" />
      
      <glyph glyph-name="icon-shouye" unicode="&#58987;" d="M697.106 37.391H636.85c-33.519 0.678-60.45 28.094-60.45 61.128v95.422c-0.097 11.431-9.397 20.731-20.925 20.731h-89.706c-11.431 0-20.828-9.397-20.925-20.828v-95.131c0-2.131-0.29-4.166-0.775-6.103-1.453-14.144-7.653-27.222-17.922-37.394-11.722-11.528-27.803-18.406-43.594-17.825H322.2c-34.487 0-67.037 13.369-91.547 37.684-24.703 24.51-38.46 57.157-38.653 92.032v270.28c0.29 30.517 14.919 59.385 39.04 77.598L433.607 677.54c44.563 35.263 106.66 35.263 151.222 0.097L788.847 514.79c23.831-18.116 38.072-46.21 38.556-76.725v-270.862c-0.194-34.972-13.95-67.716-38.75-92.129-24.606-24.315-57.06-37.684-91.547-37.684z m-71.439 168.047v-96.342c0-7.697 6.025-13.91 13.81-14.096h49.17c21.41 0 41.428 8.254 56.535 23.185 15.292 15.023 23.725 35.147 23.818 56.663v258.74c-0.278 15.116-7.414 29.305-19.74 38.672L553.707 628.432c-26.228 20.773-63.022 20.773-89.25-0.093l-194.254-155.8c-12.697-9.553-20.019-24.206-20.204-39.415v-258.276c0.093-21.33 8.526-41.454 23.818-56.57C288.925 103.253 309.036 95 330.26 95h49.912c3.893 0 7.507 1.484 10.195 4.173 2.78 2.69 4.263 6.306 4.263 10.201 0 1.577 0.185 3.06 0.463 4.452v91.427c0.186 35.518 37.02 64.267 72.33 64.36l85.636-0.98c35.31 0 72.423-27.676 72.608-63.195z"  horiz-adv-x="1024" />
      
      <glyph glyph-name="icon-waimai" unicode="&#58988;" d="M699.997 416.127c1.855-0.123 3.7-0.417 5.518-0.88a28.235 28.235 0 0 0 4.45 0.88h92.928c30.773 0 74.334-58.129 74.334-94.474v-15.29c0-23.903-22.296-22.224-50.633-21.993 11.96-25.953 18.255-55.302 18.267-85.168 0-99.046-67.626-179.417-151.084-179.417-54.903-0.512-105.77 35.574-133.088 94.423H412.678c-27.403-58.878-78.346-94.958-133.313-94.423C195.757 19.785 128 100.11 128 199.202c0.324 58.754 24.275 113.462 63.898 145.948a76.785 76.785 0 0 0-1.396 14.307l34.989 69.102c-29.659 18.52-49.172 52.191-49.172 82.24V534.41c0.432 39.586 26.726 71.262 58.764 70.792h120.845c24.806 31.808 66.736 68.292 87.664 53.916 26.754-18.3 17.63-67.204 6.904-97.785l-19.504-58.43v-15.707c-0.224-31.843-17.672-59.56-42.595-67.667-27.167-119.43 76.628-182.212 144.095-93.305a117.453 117.453 0 0 1 6.136 14.978c0.309-0.313 0.44-0.463 0.412-0.394 23.663 63.524 82.558 73.756 105.5 75.237l55.457 0.081zM616.124 483.2c-32.517-1.426-60.002 25.103-61.457 59.321V641.37c1.45 34.22 28.938 60.753 61.457 59.32h225.245c32.516 1.421 59.997-25.105 61.458-59.32v-98.848c-1.472-34.21-28.946-60.73-61.458-59.32H616.124zM277.333 192m-64 0a64 64 0 1 1 128 0 64 64 0 1 1-128 0ZM704 192m-64 0a64 64 0 1 1 128 0 64 64 0 1 1-128 0Z"  horiz-adv-x="1024" />
      
      <glyph glyph-name="dingzuo01" unicode="&#58966;" d="M512 832a448 448 0 1 0 0-896A448 448 0 0 0 512 832zM300.8 469.312h-38.4c-21.248 0-38.4-17.024-38.4-37.952v-208.576c0-20.992 36.416-56.96 57.6-56.96h57.6v-9.408c0-15.68 12.928-28.416 28.8-28.416 15.936 0 28.8 12.672 28.8 28.416v9.472h230.464v-9.472c0-15.68 12.928-28.416 28.8-28.416 15.936 0 28.8 12.672 28.8 28.416v9.472h57.6c21.248 0 57.664 35.904 57.536 56.832V431.36a38.144 38.144 0 0 1-38.4 37.952h-38.4c-21.184 0-38.4-17.024-38.4-37.952v-151.68H339.2V431.36a38.144 38.144 0 0 1-38.4 37.952zM665.6 640H358.4c-31.872 0-57.6-25.472-57.6-56.96v-75.776c6.016 2.112 12.48 0 19.2 0 31.808 0 57.6-25.536 57.6-56.96v-132.736h268.928V450.368c0 31.36 25.792 56.896 57.6 56.896 6.72 0 13.12 2.112 19.2-0.064V583.04c0 31.36-25.792 56.896-57.6 56.896z"  horiz-adv-x="1024" />
      
      <glyph glyph-name="pinglun1" unicode="&#58963;" d="M765.664 702.72l45.248-45.28a64 64 0 0 0 0-90.496l-261.248-261.28a64 64 0 0 0-24-15.104l-126.624-44.672a32 32 0 0 0-41.152 39.776l41.024 130.56a64 64 0 0 0 15.808 26.048l260.416 260.416a64 64 0 0 0 90.528 0z m-310.464-287.84l-6.528-6.56a16 16 0 0 1-3.008-4.16l-0.96-2.368-31.456-99.968 96.48 34.016a16 16 0 0 1 4.16 2.24l1.824 1.536 7.36 7.36-67.872 67.904z m192 192l-158.08-158.08 67.904-67.872 158.048 158.048-67.872 67.904z m64.096 63.712l-2.208-1.824-27.936-27.968 67.84-67.872 27.968 27.936a16 16 0 0 1 1.856 20.416l-1.856 2.24-45.248 45.248a16 16 0 0 1-20.416 1.824zM513.792 736a24.544 24.544 0 0 0 3.36-48.896l-3.36-0.224H303.616a94.528 94.528 0 0 1-94.336-88.96l-0.16-5.536v-416.768a94.528 94.528 0 0 1 88.96-94.336l5.536-0.16h416.768a94.528 94.528 0 0 1 94.336 88.96l0.16 5.536v195.168a24.544 24.544 0 0 0 48.896 3.328l0.224-3.328v-195.168a143.648 143.648 0 0 0-136.64-143.456l-6.976-0.16H303.616a143.648 143.648 0 0 0-143.456 136.64L160 175.648V592.384a143.648 143.648 0 0 0 136.64 143.456L303.648 736h210.176z"  horiz-adv-x="1024" />
      
      <glyph glyph-name="icon-gongxiangmeishi1" unicode="&#58976;" d="M896 800a32 32 0 0 0 31.701333-27.648L928 768v-192a181.290667 181.290667 0 0 0-89.301333-156.288l27.818666-278.357333a118.869333 118.869333 0 1 0-237.184-11.818667l0.128 5.930667 0.426667 5.888 27.648 276.693333a181.333333 181.333333 0 0 0-91.989333 148.778667L565.333333 576V768a32 32 0 0 0 63.701334 4.352L629.333333 768v-192c0-43.093333 23.466667-82.005333 60.16-102.485333l8.661334-4.48c13.738667-5.461333 23.936-27.050667 24.448-41.216l-0.128-4.352-28.885334-288.426667a54.869333 54.869333 0 1 1 109.525334-5.632l-0.298667 5.589333-28.842667 288.469334c-1.365333 20.693333 6.570667 36.949333 18.773334 43.605333l2.645333 1.877333 2.901333 1.664a117.333333 117.333333 0 0 1 65.450667 97.450667l0.256 7.936V768a32 32 0 0 0 32 32zM661.333333 797.866667H725.333333v-256h-64zM768 797.866667h64v-256H768zM327.637333 815.488c-109.653333 0-194.56-99.072-194.56-216.96l0.170667-9.813333c3.157333-78.464 44.032-148.522667 105.898667-183.594667l5.418666-2.901333-28.373333-280.106667 0.554667 3.328c-1.066667-5.845333-1.706667-11.52-1.706667-17.408 0-60.16 53.248-103.253333 113.152-103.253333 59.904 0 113.066667 43.093333 113.066667 103.253333l-0.170667 5.888-0.554667 5.802667-0.426666 2.688-28.8 280.149333 5.461333 2.944c64.085333 36.693333 105.429333 110.933333 105.429333 193.024 0 117.888-84.906667 216.96-194.56 216.96z m0-64c71.68 0 130.56-68.138667 130.56-152.96 0-70.826667-41.386667-131.285333-98.304-148.224l-7.210666-1.92-10.197334-2.304 34.048-331.306667 0.682667-4.949333 0.085333-1.792c0-21.162667-21.589333-39.253333-49.109333-39.253333-27.562667 0-49.109333 18.090667-49.109333 39.253333l0.128 2.645333 0.426666 3.029334 33.749334 332.288-10.24 2.304c-60.885333 13.525333-106.112 76.202667-106.112 150.186666 0 84.906667 58.88 153.002667 130.56 153.002667z"  horiz-adv-x="1024" />
      
      <glyph glyph-name="icon-ingshou" unicode="&#58982;" d="M810.666667 597.333333a85.333333 85.333333 0 0 0 85.333333-85.333333v-426.666667a85.333333 85.333333 0 0 0-85.333333-85.333333H213.333333a85.333333 85.333333 0 0 0-85.333333 85.333333V512a85.333333 85.333333 0 0 0 85.333333 85.333333h597.333334z m0-64H213.333333a21.333333 21.333333 0 0 1-20.992-17.493333L192 512v-426.666667a21.333333 21.333333 0 0 1 17.493333-20.992L213.333333 64h597.333334a21.333333 21.333333 0 0 1 20.992 17.493333L832 85.333333V512a21.333333 21.333333 0 0 1-17.493333 20.992L810.666667 533.333333zM512 800a197.930667 197.930667 0 0 0 197.717333-188.885333l0.213334-9.045334V469.333333a32 32 0 0 0-63.701334-4.352L645.930667 469.333333V602.069333a133.930667 133.930667 0 0 1-267.648 7.594667l-0.213334-7.594667V469.333333a32 32 0 0 0-63.701333-4.352L314.069333 469.333333V602.069333A197.930667 197.930667 0 0 0 512 800z"  horiz-adv-x="1024" />
      
      <glyph glyph-name="icon-meishi1" unicode="&#58983;" d="M90.581333 64h842.794667v-63.189333H90.581333zM512 677.589333c281.173333 0 426.666667-218.154667 426.666667-510.677333a31.573333 31.573333 0 0 0-12.714667-25.301333 31.488 31.488 0 0 0-24.149333-11.264H122.197333a31.573333 31.573333 0 0 0-24.149333 11.221333 31.658667 31.658667 0 0 0-12.714667 25.344c0 292.522667 145.493333 510.72 426.666667 510.72zM512 614.4c-231.381333 0-354.858667-173.269333-363.008-420.906667h726.016C866.858667 441.173333 743.381333 614.4 512 614.4zM525.184 810.666667c80.298667 0 145.749333-63.573333 149.888-143.36l0.213333-8.021334v-13.568a31.573333 31.573333 0 0 0-62.933333-4.266666l-0.256 4.266666v13.568c0 48.768-38.997333 88.192-86.912 88.192-45.866667 0-83.541333-36.053333-86.698667-81.877333l-0.213333-6.314667v-15.701333a31.573333 31.573333 0 0 0-62.933333-4.266667l-0.298667 4.266667v15.701333C375.04 742.826667 442.197333 810.666667 525.226667 810.666667z"  horiz-adv-x="1024" />
      
      <glyph glyph-name="yuyue-chewei1" unicode="&#58984;" d="M850.773333 567.466667C771.754667 820.906667 444.458667 894.805333 263.936 700.288 155.733333 583.594667 143.914667 399.786667 216.96 275.370667c65.621333-111.786667 153.6-204.672 249.258667-290.816 40.661333-36.693333 64.896-36.096 106.325333 0.512a1440.426667 1440.426667 0 0 1 186.026667 197.802666c58.965333 76.202667 110.037333 156.117333 106.624 250.325334A331.733333 331.733333 0 0 1 850.773333 567.466667z m-334.933333-389.674667c-155.52 0.384-282.453333 129.621333-281.6 286.677333 0.853333 157.994667 129.792 286.421333 285.952 284.714667a285.44 285.44 0 0 0 283.605333-287.146667c-0.341333-158.421333-128.213333-284.629333-288-284.245333zM552.021333 636.117333c-32.981333 1.024-65.962667 0.682667-98.944 0.682667-35.029333 0-43.904-8.661333-43.904-43.306667-0.128-97.706667-0.085333-195.413333 0-293.12 0-5.12 0.256-10.325333 0.768-15.488 1.706667-16 11.434667-23.978667 26.794667-25.514666 21.248-2.048 33.706667 10.026667 34.304 34.56 0.682667 29.098667 0.170667 58.197333 0.170667 91.050666 29.312 0 56.448-1.28 83.328 0.256 70.186667 3.925333 123.178667 59.050667 122.325333 125.866667-0.853333 69.546667-53.674667 122.752-124.842667 125.013333z m-3.328-189.738666c-23.296-0.426667-46.634667 0.128-69.973333 0.341333-1.792 0-3.584 1.109333-6.357333 2.048V574.976c28.16 0 54.698667 1.365333 81.066666-0.341333 36.096-2.304 62.122667-31.274667 61.354667-65.237334-0.981333-34.986667-29.184-62.293333-66.133333-63.018666z"  horiz-adv-x="1024" />
      
      <glyph glyph-name="yuyue-KTV" unicode="&#58985;" d="M535.381333 586.666667c0.256-0.256 94.421333-118.656 282.453334-355.157334a20.010667 20.010667 0 0 0-1.28-26.88l-81.621334-81.664a20.010667 20.010667 0 0 0-26.922666-1.28l-336.170667 289.109334M786.048 160a36.010667 36.010667 0 0 0 50.816 3.029333c76.714667-68.010667 35.114667-184.917333-73.344-203.562666-42.453333-7.296-79.530667 4.053333-139.52 35.114666l-43.733333 23.253334-17.322667 8.832-7.765333 3.754666-13.909334 6.272c-19.413333 8.277333-32.810667 11.392-46.08 11.392-43.178667 0-79.445333-19.413333-111.232-60.842666a36.010667 36.010667 0 1 0-57.088 43.818666c44.885333 58.496 101.802667 89.002667 168.32 89.002667 30.933333 0 55.509333-7.125333 96.341334-27.178667l20.053333-10.24 44.373333-23.552 18.816-9.386666c35.370667-16.981333 57.472-22.613333 76.586667-19.285334 49.152 8.448 65.621333 48.810667 41.472 75.093334l-3.712 3.669333a36.010667 36.010667 0 0 0-3.072 50.773333zM340.736 410.794667a199.936 199.936 0 1 1 0 399.872 199.936 199.936 0 0 1 0-399.872z"  horiz-adv-x="1024" />
      
      <glyph glyph-name="icon-waimai1" unicode="&#58986;" d="M705.109333 160a32 32 0 0 0 4.309334-63.701333l-4.309334-0.298667H316.928a32 32 0 0 0-4.352 63.701333l4.352 0.298667h388.181333z m-346.026666 469.333333a74.666667 74.666667 0 0 0 74.453333-68.522666l0.256-6.144v-227.541334a10.666667 10.666667 0 0 1 8.192-10.410666l2.474667-0.256H554.666667a10.666667 10.666667 0 0 1 10.368 8.192l0.298666 2.474666v71.082667a74.666667 74.666667 0 0 0 68.522667 74.453333L640 472.874667h188.458667a74.666667 74.666667 0 0 0 74.410666-68.522667l0.256-6.144v-173.952a32 32 0 0 0-63.701333-4.352l-0.298667 4.352v173.952a10.666667 10.666667 0 0 1-8.234666 10.410667l-2.432 0.256H640a10.666667 10.666667 0 0 1-10.368-8.192l-0.298667-2.474667v-71.082667a74.666667 74.666667 0 0 0-68.522666-74.453333l-6.144-0.213333h-110.208a74.666667 74.666667 0 0 0-74.453334 68.522666l-0.213333 6.144V554.666667a10.666667 10.666667 0 0 1-8.234667 10.368l-2.432 0.298666H278.613333a10.666667 10.666667 0 0 1-9.301333-5.418666l-1.066667-2.645334-82.773333-331.008a32 32 0 0 0-62.805333 11.264l0.768 4.266667 82.730666 330.965333a74.666667 74.666667 0 0 0 66.090667 56.32l6.357333 0.256h80.469334zM832 757.333333c41.216 0 74.666667-33.450667 74.666667-74.666666v-85.333334a74.666667 74.666667 0 0 0-74.666667-74.666666H640A74.666667 74.666667 0 0 0 565.333333 597.333333V682.666667c0 41.216 33.450667 74.666667 74.666667 74.666666z m0-64H640a10.666667 10.666667 0 0 1-10.666667-10.666666v-85.333334c0-5.888 4.778667-10.666667 10.666667-10.666666h192a10.666667 10.666667 0 0 1 10.666667 10.666666V682.666667a10.666667 10.666667 0 0 1-10.666667 10.666666zM213.333333 768h213.333334v-64H213.333333zM213.333333 256a128 128 0 1 0 0-256 128 128 0 0 0 0 256z m0-64a64 64 0 1 1 0-128 64 64 0 0 1 0 128zM810.666667 256a128 128 0 1 0 0-256 128 128 0 0 0 0 256z m0-64a64 64 0 1 1 0-128 64 64 0 0 1 0 128z"  horiz-adv-x="1024" />
      
      <glyph glyph-name="red_gouxuan" unicode="&#58981;" d="M512 832a448 448 0 1 0 0-896A448 448 0 0 0 512 832z m204.8-290.56L483.072 307.712l-135.04 135.04a18.688 18.688 0 0 1-26.304 0l-23.04-23.04a18.624 18.624 0 0 1 0-26.368l171.136-171.136a18.688 18.688 0 0 1 26.432 0l269.888 269.888a18.56 18.56 0 0 1 0 26.304l-23.04 23.04a18.624 18.624 0 0 1-26.304 0z"  horiz-adv-x="1024" />
      
      <glyph glyph-name="orange_gouxuan" unicode="&#58975;" d="M512 832a448 448 0 1 0 0-896A448 448 0 0 0 512 832z m204.8-290.56L483.072 307.712l-135.04 135.04a18.688 18.688 0 0 1-26.304 0l-23.04-23.04a18.624 18.624 0 0 1 0-26.368l171.136-171.136a18.688 18.688 0 0 1 26.432 0l269.888 269.888a18.56 18.56 0 0 1 0 26.304l-23.04 23.04a18.624 18.624 0 0 1-26.304 0z"  horiz-adv-x="1024" />
      
      <glyph glyph-name="daojiafuwu" unicode="&#58950;" d="M512 832a448 448 0 1 0 0-896A448 448 0 0 0 512 832z m176-192h-384a48 48 0 0 1-48-48v-96a48 48 0 0 1 48-48h384a48 48 0 0 1 48 48v24h48V400H568a96 96 0 0 1-96-96V256L448 232V64h96v168L520 256v48a48 48 0 0 0 48 48h216a48 48 0 0 1 48 48V520a48 48 0 0 1-48 48h-48V592a48 48 0 0 1-48 48z"  horiz-adv-x="1024" />
      
      <glyph glyph-name="waimai" unicode="&#58977;" d="M512 832a448 448 0 1 0 0-896A448 448 0 0 0 512 832zM443.84 640h-95.36c-26.24 0-47.616-22.336-47.616-49.792 0-2.304 0.32-8.064 0.32-8.064 0.448-0.96 0.64-1.92 0.896-2.944 0.896-4.48 2.56-8.576 4.48-12.544a23.616 23.616 0 0 0 2.304-6.4l24.128-145.856a37.44 37.44 0 0 0-22.784-41.28l-8.832-3.84C240.448 365.888 192 313.216 192 248.64c0-66.752 51.84-120.96 115.712-120.96 56.96 0 104.192 43.008 113.792 99.584h180.864c9.728-56.576 56.896-99.584 113.856-99.584 61.568 0 111.872 50.368 115.392 113.856H832v42.688c0 18.56-5.504 36.544-15.808 51.648l-52.288 76.48h18.816c13.632 0 21.184 16.64 12.416 27.52a40 40 0 0 1-31.232 15.104H586.944c-22.528 0-40.896-19.136-40.896-42.624l10.24-17.792 7.936-13.888 6.272-10.88c7.168-12.672-6.784-25.408-20.8-25.408h-56.512c-22.272 0-74.752 8.128-94.08 98.56L388.992 544c-9.856 25.472 8.128 53.312 34.432 53.312h20.352a20.864 20.864 0 0 1 20.48 21.376 20.864 20.864 0 0 1-20.48 21.312z m272.448-327.36c33.856 0 61.248-28.608 61.248-64 0-35.456-27.392-64.128-61.248-64.128-33.92 0-61.312 28.672-61.312 64.064 0 35.392 27.392 64.064 61.312 64.064z m-408.576 0c33.92 0 61.312-28.608 61.312-64 0-35.456-27.52-64.128-61.312-64.128-33.856 0-61.248 28.672-61.248 64.064 0 35.392 27.392 64.064 61.248 64.064z m0-42.688a20.928 20.928 0 0 1-20.352-21.376c0-11.712 9.088-21.312 20.352-21.312 11.264 0 20.48 9.6 20.48 21.312a20.864 20.864 0 0 1-20.48 21.376z m408.576 0a20.928 20.928 0 0 1-20.48-21.376 20.864 20.864 0 0 1 20.48-21.312c11.264 0 20.352 9.6 20.352 21.312a20.864 20.864 0 0 1-20.352 21.376z m24.832 348.672H616.32c-28.992 0-47.808-27.136-47.808-57.344v-78.848h225.792V561.28c0 26.368-27.904 57.344-53.12 57.344z"  horiz-adv-x="1024" />
      
      <glyph glyph-name="dingzuo1" unicode="&#58978;" d="M512 832a448 448 0 1 0 0-896A448 448 0 0 0 512 832z m294.912-587.072h-543.36c-17.024 0-30.848-12.48-30.848-27.904s13.824-27.904 30.912-27.904h543.36c17.024 0 30.848 12.48 30.848 27.904 0 15.36-13.824 27.904-30.912 27.904z m-271.68 435.84a46.848 46.848 0 0 1-47.232-46.336c0-11.328 4.16-21.76 11.2-29.888-139.712-17.024-247.744-132.096-247.744-271.552v-4.672h0.128c0-15.36 12.672-27.84 28.352-27.84H790.4a28.16 28.16 0 0 1 28.416 27.84v4.672c0 139.392-107.904 254.4-247.552 271.552a45.632 45.632 0 0 1-2.56 62.72 47.616 47.616 0 0 1-33.472 13.44z m57.856-130.56c64.64-17.92 118.528-60.48 147.968-116.928 5.568-10.624 0.704-23.424-10.752-28.608a24.32 24.32 0 0 0-9.984-2.112 23.168 23.168 0 0 0-20.736 12.096c-23.808 45.696-67.392 80.128-119.68 94.528-12.16 3.328-19.072 15.232-15.488 26.56 3.584 11.264 16.512 17.728 28.672 14.4z"  horiz-adv-x="1024" />
      
      <glyph glyph-name="daodianfuwu" unicode="&#58979;" d="M512 832a448 448 0 1 0 0-896A448 448 0 0 0 512 832z m-51.584-128a306.368 306.368 0 0 1-61.568-6.72 168.512 168.512 0 0 1-26.752-7.36 219.648 219.648 0 0 1-29.44 0.64c-8.064-0.384-16.64-1.6-25.792-3.648a62.208 62.208 0 0 1-23.808-10.368 61.376 61.376 0 0 1-18.688-21.12 90.432 90.432 0 0 1-8.384-23.04 76.416 76.416 0 0 1-1.664-20.736c0.448-6.272 0.64-10.752 0.64-13.44l1.344-16.704c0.448-5.376 0.64-10.24 0.64-14.72a133.248 133.248 0 0 0-3.008-20.096 153.6 153.6 0 0 0-11.712-32.832 488.768 488.768 0 0 0-35.136-45.824c-10.496-11.84-17.024-21.312-19.712-28.48a83.52 83.52 0 0 1-5.056-27.072c-0.192-9.6-0.32-17.728-0.32-24.448 0.448-15.616 5.12-32.576 14.08-50.88 2.624-6.272 6.016-11.904 10.048-17.088l11.328-14.4 12.8-14.08a35.2 35.2 0 0 0 5.312-13.312 50.176 50.176 0 0 0 0-16.448 79.104 79.104 0 0 0-7.36-22.4c-2.24-5.376-4.928-10.88-8.064-16.768a124.032 124.032 0 0 1-13.056-38.4 60.928 60.928 0 0 1 0.32-21.12c1.792-8.96 6.848-17.92 15.104-26.816 8.256-8.96 18.816-16.512 31.808-22.72 12.928-6.272 27.392-10.752 43.52-13.44 16-2.624 33.024-2.176 50.816 1.344 16.96 3.2 32.832 9.856 47.552 20.096 14.72 10.24 25.92 25.92 33.472 46.848 3.584 10.24 5.76 20.672 6.72 31.168 0.896 10.496 1.28 20.16 1.28 29.12 0 10.24-0.64 20.48-1.92 30.72a197.376 197.376 0 0 1-4.096 23.488 117.376 117.376 0 0 1-8.704 18.752 38.912 38.912 0 0 1-14.72 14.72 42.432 42.432 0 0 1-21.376 5.376c-8.064 0-15.872 0.192-23.424 0.64-10.24 0-19.008-0.448-26.112-1.28a55.296 55.296 0 0 0-18.432 0.256 22.08 22.08 0 0 0-13.056 8.704c-3.584 4.672-6.72 12.8-9.344 24.448a112.448 112.448 0 0 0-3.008 15.04l-1.728 13.76a143.232 143.232 0 0 0-0.64 12.736 8.32 8.32 0 0 1 0 4.672 29.696 29.696 0 0 1-8.064 11.392 14.08 14.08 0 0 0-4.992 7.68 9.536 9.536 0 0 1-4.352 6.4 31.872 31.872 0 0 1-7.68 2.304c-3.392 0.64-5.504 1.92-6.4 3.648-0.448 1.344 0.576 4.16 3.008 8.384 2.496 4.224 5.504 9.28 9.088 15.04 2.624 4.032 5.888 8.384 9.664 13.056a61.44 61.44 0 0 1 9.024 15.104 56.832 56.832 0 0 1 2.368 28.16 159.744 159.744 0 0 0-2.368 24.064V536.96c0 2.496 2.048 5.12 6.08 8.064 3.968 2.88 10.88 4.8 20.736 5.696 9.792 0.896 24.512-1.152 44.16-6.016 15.168-5.824 22.784-15.872 22.784-30.144 0-5.376-1.344-11.584-4.032-18.752a437.376 437.376 0 0 1-7.68-22.4 109.312 109.312 0 0 1-4.672-23.808 41.792 41.792 0 0 1 4.992-23.424 33.728 33.728 0 0 1 17.088-16.704c7.808-3.584 15.744-6.464 23.744-8.704 9.344-2.24 19.648-3.584 30.784-4.032 8.064-0.448 15.872-2.24 23.424-5.376 6.272-3.072 12.736-7.808 19.456-14.08 6.656-6.208 12.224-15.104 16.704-26.752 1.344-4.48 1.344-9.152 0-14.08-1.28-4.864-3.136-9.792-5.376-14.72-2.624-5.312-5.76-10.88-9.344-16.704a549.312 549.312 0 0 1-33.792-60.928 87.04 87.04 0 0 1-8.384-24.768c-0.896-6.656-0.64-16 0.64-27.776 1.344-11.84 5.504-24.448 12.416-37.76 6.912-13.44 17.28-26.496 31.104-39.232 13.888-12.672 32.832-23.296 56.96-31.808 34.752-12.032 66.24-18.24 94.336-18.688 28.16-0.448 52.544 3.328 73.344 11.328 20.736 8.064 37.376 19.52 49.856 34.496 12.48 14.976 20.736 31.552 24.768 49.92 4.928 22.72 3.584 40.704-4.032 53.824a62.4 62.4 0 0 1-31.488 27.776 87.36 87.36 0 0 1-43.136 5.376c-15.36-1.792-28.672-6.464-39.872-14.08a50.048 50.048 0 0 1-13.376-14.72 50.112 50.112 0 0 1-5.312-14.08 32.896 32.896 0 0 1-0.64-14.72c3.968 2.24 8.192 4.288 12.672 6.08a111.424 111.424 0 0 0 24.768 6.016c8.448 0.448 14.4-1.344 17.728-5.376 3.328-4.032 4.608-8.96 3.712-14.72a31.36 31.36 0 0 0-8.384-16.384 31.104 31.104 0 0 0-17.728-9.728 36.928 36.928 0 0 0-11.712-1.024 72 72 0 0 0-29.824 8.384 38.144 38.144 0 0 0-12.032 10.048 40.064 40.064 0 0 0-9.728 19.392 44.608 44.608 0 0 0 1.664 23.424c2.688 8.064 7.936 16.064 15.744 24.128s19.072 15.36 33.792 22.08c1.792 0.896 6.144 2.688 13.056 5.376a154.112 154.112 0 0 1 47.232 29.76c8 7.36 14.272 16.192 18.752 26.432 4.48 10.24 6.208 22.144 5.312 35.52-0.896 13.376-6.016 28.544-15.36 45.504a111.744 111.744 0 0 1-17.728 22.08 1719.04 1719.04 0 0 0-20.096 19.776 215.04 215.04 0 0 0-17.088 19.072 36.416 36.416 0 0 0-8 20.736l-1.024 17.088c-0.64 10.88-3.008 24.32-7.04 40.128a276.8 276.8 0 0 1-19.392 51.584 174.272 174.272 0 0 1-38.848 51.52 214.528 214.528 0 0 1-64.96 40.192c-26.304 10.88-58.88 16.832-97.728 17.728z"  horiz-adv-x="1024" />
      
      <glyph glyph-name="tingche01" unicode="&#58980;" d="M512 832a448 448 0 1 0 0-896A448 448 0 0 0 512 832zM325.952 621.184c-81.216-87.488-90.048-225.28-35.2-318.656 49.216-83.84 115.2-153.536 186.88-218.112 30.528-27.52 48.704-27.072 79.744 0.384a1080.32 1080.32 0 0 1 139.52 148.352c44.288 57.152 82.56 117.12 80 187.776a248.768 248.768 0 0 1-10.816 100.672c-59.264 190.08-304.704 245.504-440.128 99.584z m192.192 36.736a214.08 214.08 0 0 0 212.672-215.424c-0.192-118.784-96.128-213.44-215.936-213.12-116.672 0.256-211.84 97.152-211.2 214.976 0.64 118.528 97.344 214.784 214.464 213.568zM467.84 573.6320000000001c-26.304 0-32.96-6.528-32.96-32.512V321.28c0-3.84 0.192-7.744 0.576-11.584 1.28-12.032 8.576-17.984 20.096-19.2 15.936-1.536 25.28 7.552 25.728 25.984 0.512 21.76 0.128 43.648 0.128 68.288 22.016 0 42.368-0.96 62.464 0.192 52.672 2.944 92.416 44.224 91.776 94.336-0.64 52.16-40.256 92.16-93.632 93.76-24.704 0.832-49.472 0.576-74.24 0.576z m75.264-46.656a48.128 48.128 0 0 0 45.952-48.896c-0.64-26.24-21.888-46.72-49.536-47.296-17.472-0.32-34.944 0.128-52.48 0.256-1.28 0-2.688 0.832-4.736 1.536V527.232c21.12 0 40.96 1.024 60.8-0.256z"  horiz-adv-x="1024" />
      
      <glyph glyph-name="pingpaidaolan" unicode="&#58974;" d="M511.973 126.867L768.816 251.79l-132.042 64.263c-31.392-35.191-58.368-58.71-61.091-61.02-0.977-0.877-2.209-1.236-3.236-1.905-0.82-0.512-1.386-1.286-2.209-1.7l-157.167-76.458 98.902-48.104zM453.71 348.365L255.184 251.79l99.161-48.21 159.58 77.64c-16.8 16.466-38.789 39.772-60.211 67.144h-0.003z m105.274 304.182c-71.517 0-129.68-58.292-129.68-129.911 0-75.793 82.31-168.97 129.577-213.477 47.32 44.97 129.833 138.97 129.833 213.474 0 71.622-58.16 129.914-129.73 129.914z m279.859-377.603a25.777 25.777 0 0 0 14.49-23.153 25.702 25.702 0 0 0-14.49-23.101L523.226 75.158a25.512 25.512 0 0 0-11.253-2.625c-3.902 0-7.75 0.904-11.25 2.625L185.155 228.69a25.702 25.702 0 0 0-14.49 23.101 25.777 25.777 0 0 0 14.49 23.153l238.449 116.023c-25.85 40.854-45.68 86.698-45.68 131.666C377.927 622.653 459.157 704 558.984 704c99.88 0 181.111-81.347 181.111-181.367 0-57.522-33.191-117.208-69.772-165.725l168.52-81.964zM601.286 522.899c0-23.409-18.91-42.343-42.233-42.343-23.378 0-42.336 18.934-42.336 42.343 0 23.36 18.958 42.294 42.336 42.294 23.327 0 42.233-18.933 42.233-42.29v-0.004z"  horiz-adv-x="1024" />
      
      <glyph glyph-name="dingwei" unicode="&#58972;" d="M525.994608 895.995733a447.827467 447.827467 0 0 1-311.465369-124.244815 412.670281 412.670281 0 0 1 0-599.720168L525.909275-128l311.550702 300.03075a412.584948 412.584948 0 0 1 0 599.720168A447.742134 447.742134 0 0 1 526.079941 895.995733z m0-585.128228c-41.898492 0-79.871667 16.469265-107.434219 42.837155a142.932738 142.932738 0 0 0-44.543814 103.423569c0 80.81033 68.010383 146.260724 151.978033 146.260724 83.96765 0 151.978033-65.450394 151.978034-146.260724 0-40.447831-17.066596-76.970346-44.543815-103.423569-27.391886-26.453223-65.450394-42.837155-107.434219-42.837155z"  horiz-adv-x="1024" />
      
      <glyph glyph-name="wenhao" unicode="&#58973;" d="M537.083819 170.787535H486.318947a17.063823 17.063823 0 0 1-17.063823-17.063822v-50.764873c0-9.385102 7.67872-17.063823 17.063823-17.063823h50.764872a17.063823 17.063823 0 0 1 17.063823 17.063823V153.723713a17.063823 17.063823 0 0 1-17.063823 17.063822M511.914681-42.510248c-235.224796 0-426.595567 191.285452-426.595568 426.595567 0 235.224796 191.370772 426.595567 426.595568 426.595568 235.310115 0 426.595567-191.370772 426.595567-426.595568 0-235.310115-191.285452-426.595567-426.595567-426.595567M511.914681 896a511.914681 511.914681 0 1 1 0.170638-1024A511.914681 511.914681 0 0 1 511.914681 896M511.06149 681.507749a181.729712 181.729712 0 0 1-181.559074-181.559074v-7.849358a17.063823 17.063823 0 0 1 17.063823-17.063823h51.191468a17.063823 17.063823 0 0 1 17.063823 17.063823v7.764039A96.410598 96.410598 0 0 0 511.06149 596.273954a92.997834 92.997834 0 0 0 93.168472-92.485919c0-32.506582-17.490418-62.624229-46.157641-78.92018a175.928012 175.928012 0 0 1-88.987835-152.806532v-10.664889c0-9.385102 7.593401-17.063823 16.978504-17.063823h51.276787a17.063823 17.063823 0 0 1 17.063822 17.063823v10.664889c0 32.421263 17.575737 62.624229 46.24296 78.92018A176.013331 176.013331 0 0 1 689.549075 503.532078 178.316947 178.316947 0 0 1 511.06149 681.593068"  horiz-adv-x="1024" />
      
      <glyph glyph-name="dianpu" unicode="&#58971;" d="M805.802667 30.378667V391.168c26.453333-10.752 55.125333 36.010667 83.626666 38.144v-398.933333a82.602667 82.602667 0 0 0-83.626666-81.578667h-250.88V139.178667h-83.626667V-51.2H220.586667a82.602667 82.602667 0 0 0-83.626667 81.578667V433.493333c27.562667-6.314667 56.149333-6.314667 83.626667 0v-403.114666h167.253333V220.842667h250.88v-190.464h167.253333V442.368v-411.989333zM778.325333 819.2c29.525333 0 56.746667-15.104 71.850667-39.850667l132.949333-217.856h-0.341333a139.093333 139.093333 0 0 0-48.128-180.736 147.2 147.2 0 0 0-189.781333 24.064 159.061333 159.061333 0 0 0-114.602667-48.298666c-45.312 0-88.490667 18.944-118.357333 52.138666-29.866667-33.109333-73.045333-52.138667-118.357334-52.053333-43.349333-0.085333-84.906667 17.322667-114.602666 48.213333a147.2 147.2 0 0 0-196.266667-19.2 138.922667 138.922667 0 0 0-33.450667 189.696L161.024 776.533333A83.968 83.968 0 0 0 234.666667 819.2H778.24z m0-81.578667H234.666667L121.002667 533.333333l-1.962667-2.901333a58.624 58.624 0 0 1 14.250667-79.957333c25.429333-18.858667 61.525333-15.36 82.773333 8.021333l60.416 67.584 63.146667-65.28c13.994667-14.421333 33.28-22.613333 53.930666-22.613333a74.496 74.496 0 0 1 55.637334 24.490666L512 531.968l62.72-69.290667a74.496 74.496 0 0 1 55.637333-24.490666 74.496 74.496 0 0 1 53.76 22.613333l63.146667 65.28 60.586667-67.584c20.309333-22.528 54.613333-26.88 80.042666-10.154667a58.709333 58.709333 0 0 1 20.48 76.288l-1.024 1.792-128.853333 211.2z"  horiz-adv-x="1024" />
      
      <glyph glyph-name="gantanhao" unicode="&#58970;" d="M512 832a448 448 0 1 0 0-896A448 448 0 0 0 512 832z m0-640a64 64 0 1 1 0-128 64 64 0 0 1 0 128z m0 512a61.888 61.888 0 0 1-61.76-64.832l16.384-339.968a45.44 45.44 0 0 1 90.752 0l16.384 339.968A61.888 61.888 0 0 1 512 704z"  horiz-adv-x="1024" />
      
      <glyph glyph-name="zaixianzixun01" unicode="&#58968;" d="M736 736a128 128 0 0 0 128-128v-320a128 128 0 0 0-128-128h-107.008l-71.744-71.776a64 64 0 0 0-90.496 0L394.976 160H288a128 128 0 0 0-128 128V608a128 128 0 0 0 128 128h448z m0-48H288a80 80 0 0 1-79.84-74.752L208 608v-320a80 80 0 0 1 74.752-79.84L288 208h126.848l85.824-85.824a16 16 0 0 1 20.416-1.856l2.24 1.856 85.76 85.824H736a80 80 0 0 1 79.84 74.752L816 288V608a80 80 0 0 1-74.752 79.84L736 688zM384 448m-32 0a32 32 0 1 1 64 0 32 32 0 1 1-64 0ZM512 448m-32 0a32 32 0 1 1 64 0 32 32 0 1 1-64 0ZM640 448m-32 0a32 32 0 1 1 64 0 32 32 0 1 1-64 0Z"  horiz-adv-x="1024" />
      
      <glyph glyph-name="shouye01" unicode="&#58964;" d="M587.296 711.584l224-162.528A127.584 127.584 0 0 0 864 445.792v-286.08C864 89.12 806.72 32 736 32h-64a64 64 0 0 0-64 64v63.68a63.904 63.904 0 0 1-59.2 63.68l-4.8 0.16h-64a63.936 63.936 0 0 1-63.84-59.072L416 159.68V96a64 64 0 0 0-64-64H288c-70.72 0-128 57.152-128 127.68v286.112c0 40.864 19.584 79.264 52.704 103.264l224 162.528a128.256 128.256 0 0 0 150.592 0z m-28.192-38.848a80.256 80.256 0 0 1-89.152 3.36l-5.056-3.36-224-162.528a79.616 79.616 0 0 1-32.672-58.56l-0.224-5.856v-286.08c0-42.24 32.96-76.832 74.752-79.552L288 80h64a16 16 0 0 1 15.744 13.12L368 96l0.032 65.44 0.288 6.56a111.936 111.936 0 0 0 105.632 103.36l6.048 0.16h65.76l6.528-0.32a111.936 111.936 0 0 0 103.552-105.472l0.16-6.048V96a16 16 0 0 1 13.12-15.744l2.88-0.256h64a79.872 79.872 0 0 1 79.84 74.464l0.16 5.216v286.112c0 23.52-10.4 45.728-28.288 60.8l-4.608 3.616-224 162.528z"  horiz-adv-x="1024" />
      
      <glyph glyph-name="lianxishangjia01" unicode="&#58962;" d="M728.64 735.872c12.288 0.64 24.576-1.28 36.096-5.6l3.04-1.216c12.288-4.608 23.872-12.8 33.408-23.68 8.672-9.024 17.6-20.8 25.024-33.44 9.92-17.088 16.512-31.616 21.6-47.904 23.264-69.408 21.312-147.52-4.8-225.856-25.216-75.584-72.128-149.28-133.856-211.2-61.664-61.664-135.616-108.64-211.424-133.888-78.016-26.272-156.032-28.16-226.944-4.416l-10.016 3.52a218.624 218.624 0 0 0-27.68 12.512l-5.632 3.296-1.312 0.608-3.136 1.728a204.8 204.8 0 0 0-33.472 24.928c-10.176 9.6-17.92 20.8-22.816 32.864a90.752 90.752 0 0 0-6.56 39.68c0.416 12.576 4.032 26.08 10.56 38.208 4.256 8.608 11.04 17.6 19.264 25.216l3.84 3.168 2.368 1.76 120.928 93.888c10.176 7.68 21.024 12.992 32.608 16.224 10.432 2.88 21.344 3.776 32.16 2.592l7.424-0.8 31.488-13.888 4.16-3.072c2.912-2.144 6.08-4.8 9.44-7.904 4.704-4.32 9.024-8.608 13.216-12.992l3.936-4.64 22.208-30.08 1.024 0.576 2.24 1.504a558.08 558.08 0 0 1 77.472 64.192 592 592 0 0 1 64.128 76.512l1.44 2.24 0.832 1.472-33.088 24.32-3.808 2.432a86.976 86.976 0 0 0-24 26.112 90.528 90.528 0 0 0-12.48 34.56c-1.664 11.424-1.248 23.36 1.28 34.368l0.896 3.424c3.296 10.816 8.448 20.992 15.232 30.08l96 124.096 3.808 3.52 23.424 19.84 6.08 2.752 7.008 2.88c7.04 2.624 14.208 4.32 21.568 5.12l5.824 0.384z m2.496-48.032a39.744 39.744 0 0 1-12.704-2.4l-4.32-1.76-16.736-14.144-0.864-0.768-93.024-120.192c-3.456-4.672-6.08-9.888-7.776-15.424a46.912 46.912 0 0 1-0.544-16.96c0.832-5.792 2.88-11.392 5.952-16.416 2.24-3.712 4.64-6.72 7.744-9.44l3.36-2.656 2.4-1.44 49.6-36.416 1.696-4.288c6.592-16.224 5.664-35.296-7.968-54.944-20.8-29.536-44.064-57.28-69.536-82.944a603.264 603.264 0 0 0-83.488-69.248c-17.76-12.672-35.04-14.624-50.368-9.792l-4.128 1.472-4.288 1.76-33.312 45.152a248.832 248.832 0 0 1-10.88 10.72l-3.936 3.456-1.44 1.088-19.904 8.8a37.6 37.6 0 0 1-14.08-1.152 47.776 47.776 0 0 1-12.288-5.344l-3.68-2.528-121.664-94.4-2.4-1.792a43.456 43.456 0 0 1-9.472-12.64c-3.008-5.6-4.704-11.84-4.896-18.176-0.384-6.656 0.64-12.672 3.136-18.88 2.208-5.44 5.952-10.944 10.72-15.424 5.888-5.44 12.192-10.368 18.848-14.816l6.752-4.256 2.528-1.28c9.696-5.984 21.984-11.52 35.904-16.096 61.056-20.48 128.448-18.464 196.448 4.448 68.8 22.912 136.32 65.984 192.576 122.24 56.352 56.512 99.392 123.84 122.272 192.448 22.72 68.096 24.8 135.68 4.48 196.32a179.584 179.584 0 0 1-17.088 37.792 143.04 143.04 0 0 1-19.84 26.24 38.4 38.4 0 0 1-10.944 8.8l-4.16 1.856-2.048 0.832a41.184 41.184 0 0 1-16.64 2.592zM480 568a24 24 0 1 0 0-48A104 104 0 0 1 376 416a24 24 0 1 0-48 0A152 152 0 0 0 480 568zM512 728a24 24 0 1 0 0-48A296 296 0 0 1 216 384a24 24 0 1 0-48 0c0 189.984 154.016 344 344 344z"  horiz-adv-x="1024" />
      
      <glyph glyph-name="gouwuche01" unicode="&#58958;" d="M386.24 132.544c-27.808 0-50.208-22.4-50.208-50.24 0-27.84 22.4-50.304 50.176-50.304 27.808 0 50.208 22.432 50.208 50.272s-22.4 50.272-50.208 50.272z m351.392 0c-27.776 0-50.176-22.4-50.176-50.24 0-27.84 22.4-50.304 50.176-50.304 27.776 0 50.176 22.432 50.176 50.272a50.24 50.24 0 0 1-50.176 50.272z m49.792 25.152h-407.68c-36.16 0-67.968 28.64-72.32 65.28l-42.624 300.16-24.128 140.288c-1.472 12.288-12.672 22.304-23.488 22.304H185.088A25.056 25.056 0 0 0 160 710.848C160 724.8 171.2 736 185.088 736h32c36.544 0 68.8-28.64 73.216-65.28l24.16-139.744 42.752-301.536c1.344-11.616 12-21.472 22.528-21.472h407.68c13.888 0 25.088-11.2 25.088-25.152 0-13.92-11.2-25.12-25.088-25.12zM411.168 258.24a24.96 24.96 0 0 0-24.96 23.264 25.024 25.024 0 0 0 23.232 26.88l340.48 25.152c12.544 0.128 23.04 9.856 24.416 21.056l39.52 226.528c0.96 8.384-1.344 17.696-6.336 23.36a15.552 15.552 0 0 1-12 5.568H360.736a25.056 25.056 0 0 0-25.088 25.12c0 13.92 11.328 25.408 25.088 25.408H795.2c19.168 0 36.8-7.968 49.632-22.4 14.72-16.64 21.312-39.904 18.496-64.224l-39.52-226.656c-4.32-35.264-36.032-63.904-72.192-63.904l-338.56-25.024c-0.704 0-1.376-0.128-1.92-0.128z"  horiz-adv-x="1024" />
      
      <glyph glyph-name="fenlei01" unicode="&#58959;" d="M448 352a32 32 0 0 0 32-32v-128a160 160 0 1 0-160 160z m256 0a160 160 0 1 0-160-160v128a32 32 0 0 0 32 32h128z m-272-48H320l-6.144-0.16A112 112 0 0 1 320 80l6.144 0.16 6.08 0.512A112 112 0 0 1 432 192v112z m272 0h-112V192a112 112 0 0 1 99.808-111.36l6.048-0.48 6.144-0.16a112 112 0 0 1 6.144 223.84L704 304zM320 736a160 160 0 0 0 160-160v-128a32 32 0 0 0-32-32h-128a160 160 0 1 0 0 320z m384 0a160 160 0 0 0 0-320h-128a32 32 0 0 0-32 32v128a160 160 0 0 0 160 160zM320 688a112 112 0 0 1-6.144-223.84L320 464h112V576a112 112 0 0 1-99.808 111.36l-6.048 0.48L320 688z m384 0l-6.144-0.16-6.08-0.512A112 112 0 0 1 592 576v-112H704l6.144 0.16A112 112 0 0 1 704 688z"  horiz-adv-x="1024" />
      
      <glyph glyph-name="caidan01" unicode="&#58961;" d="M688.768 736a128 128 0 0 0 127.168-113.536 2097.6 2097.6 0 0 0 0.064-476.96A128 128 0 0 0 688.864 32H334.528a128 128 0 0 0-127.104 112.928A2021.76 2021.76 0 0 0 207.488 623.04 128 128 0 0 0 334.624 736h354.144z m0-48H334.624a80 80 0 0 1-79.456-70.592 1973.76 1973.76 0 0 1-0.096-466.816 80 80 0 0 1 74.208-70.4l5.248-0.192h354.304a80 80 0 0 1 79.488 70.944 2049.6 2049.6 0 0 1-0.064 466.112A80 80 0 0 1 688.768 688zM352 576h320v-64H352zM352 416h256v-64h-256zM352 256h320v-64H352z"  horiz-adv-x="1024" />
      
      <glyph glyph-name="xihuan01" unicode="&#58955;" d="M180.8384 669.4912c-87.3472-88.5248-100.096-219.3408-46.3872-330.8544 32.7168-68.0448 80.2816-128 138.6496-180.2752a755.4048 755.4048 0 0 1 159.3344-109.056l14.2336-6.9632 12.2368-5.5296c29.4912-14.592 74.8544-15.0016 107.1104-0.9216l15.4624 7.4752 9.0112 4.7616c14.08 7.4752 29.696 16.64 46.4384 27.4432a796.5696 796.5696 0 0 1 139.9808 114.944 737.792 737.792 0 0 1 110.7968 146.6368c56.9344 99.328 42.4448 243.0976-45.6192 332.288l-8.6016 8.3968a243.9168 243.9168 0 0 1-322.048 7.5264 243.8656 243.8656 0 0 1-330.5984-15.872z"  horiz-adv-x="1024" />
      
      <glyph glyph-name="kefu" unicode="&#58953;" d="M813.8752 504.064a308.8896 308.8896 0 0 1-107.1104 133.7856 326.6048 326.6048 0 0 1-189.3376 60.0064 326.6048 326.6048 0 0 1-189.3376-60.0064 308.8896 308.8896 0 0 1-107.1104-133.7856h32.9216c12.4416 0 23.808-4.9152 32.0512-12.8512a43.0592 43.0592 0 0 0 13.4656-31.0272v-226.9696a43.008 43.008 0 0 0-13.312-30.8736 46.2848 46.2848 0 0 0-32.2048-13.0048H200.9088a99.9936 99.9936 0 0 0-69.5296 27.904l-0.0512 0.1024A93.0304 93.0304 0 0 0 102.4 284.3648V409.0368c0 26.1632 11.0592 49.92 28.928 67.1232a99.84 99.84 0 0 0 38.9632 23.1424 352.768 352.768 0 0 0 130.56 174.3872A373.6064 373.6064 0 0 0 517.4272 742.4c79.9744 0 155.2896-25.088 216.576-68.7104a352.512 352.512 0 0 0 132.1984-179.3024c9.7792-4.608 18.688-10.8032 26.4192-18.2784l0.0512 0.0512c17.8688-17.2032 28.928-40.96 28.928-67.072v-124.7232c0-26.112-11.0592-49.8176-28.928-67.072h-0.0512c-17.8688-17.2544-42.496-27.9552-69.5296-27.9552h-14.6944l5.9904-4.096a361.5744 361.5744 0 0 0-130.048-108.288 376.0128 376.0128 0 0 0-166.912-39.0144h-1.8432a42.1376 42.1376 0 0 0-29.952-12.3392c-22.9376 0-41.472 17.92-41.472 40.0384 0 22.1184 18.5344 40.0384 41.472 40.0384 16.6912 0 31.0784-9.472 37.6832-23.1936a328.2432 328.2432 0 0 1 139.9808 33.9456 317.44 317.44 0 0 1 96.8704 73.984 46.2336 46.2336 0 0 0-22.1696 11.776 43.008 43.008 0 0 0-13.4144 31.0272V460.1856c0 11.9808 5.12 22.9376 13.312 30.9248a46.2848 46.2848 0 0 0 32.2048 12.9536h43.776z m-560.64-44.544H200.9088c-14.4384 0-27.4944-5.632-36.9664-14.7456a49.8176 49.8176 0 0 1-15.36-35.7376v-124.672c0-13.8752 5.888-26.5216 15.36-35.6864 9.472-9.1136 22.528-14.7968 36.9664-14.7968h52.3264V459.52z m569.856 0h-52.3264v-225.6384h52.3264c14.3872 0 27.4944 5.6832 37.0176 14.848a49.5616 49.5616 0 0 1 15.36 35.6352V409.0368a49.4592 49.4592 0 0 1-15.4112 35.6352c-9.472 9.216-22.528 14.848-36.9664 14.848z"  horiz-adv-x="1024" />
      
      <glyph glyph-name="xihuan" unicode="&#58954;" d="M180.8384 669.4912c-87.3472-88.5248-100.096-219.3408-46.3872-330.8544 32.7168-68.0448 80.2816-128 138.6496-180.2752a755.4048 755.4048 0 0 1 159.3344-109.056l14.2336-6.9632 12.2368-5.5296c29.4912-14.592 74.8544-15.0016 107.1104-0.9216l15.4624 7.4752 9.0112 4.7616c14.08 7.4752 29.696 16.64 46.4384 27.4432a796.5696 796.5696 0 0 1 139.9808 114.944 737.792 737.792 0 0 1 110.7968 146.6368c56.9344 99.328 42.4448 243.0976-45.6192 332.288l-8.6016 8.3968a243.9168 243.9168 0 0 1-322.048 7.5264 243.8656 243.8656 0 0 1-330.5984-15.872z m626.8416-33.4336c72.6016-73.5744 84.736-194.048 38.144-275.3024a690.176 690.176 0 0 0-103.6288-137.1136 748.8 748.8 0 0 0-131.5328-108.032 641.536 641.536 0 0 0-33.024-19.968l-14.2848-7.7312-11.2128-5.632c-17.92-9.728-46.592-11.264-66.304-4.8128l-9.984 4.096-12.4928 5.8368a707.6864 707.6864 0 0 0-158.0032 106.496c-53.9648 48.2816-97.6384 103.3728-127.488 165.376-45.4656 94.4128-34.816 203.6224 37.376 276.7872a195.328 195.328 0 0 0 279.04 0l17.152-17.408 17.2032 17.408a195.4304 195.4304 0 0 0 279.04 0z"  horiz-adv-x="1024" />
      
      <glyph glyph-name="quzheli" unicode="&#58951;" d="M486.4 742.4a280.4736 280.4736 0 0 1-199.0656-82.4832 281.344 281.344 0 0 1 0-398.08l199.0656-199.168 199.0656 199.168a281.2416 281.2416 0 0 1 0 398.08A280.4224 280.4224 0 0 1 486.4 742.4z m0-388.4032A97.024 97.024 0 0 0 389.2736 451.072 97.0752 97.0752 0 1 0 486.4 353.9968z"  horiz-adv-x="1024" />
      
      <glyph glyph-name="weixinqun" unicode="&#58952;" d="M674.304 532.224c9.6768 0 19.2512-0.768 28.8256-1.8432C677.2736 652.032 548.5056 742.4 401.408 742.4 237.056 742.4 102.4 629.3504 102.4 485.6832c0-82.944 44.8-151.04 119.6544-203.8784l-29.9008-90.7776 104.5504 52.8896c37.376-7.424 67.3792-15.104 104.704-15.104 9.4208 0 18.688 0.4096 27.904 1.1264a228.352 228.352 0 0 0-9.216 63.3344c0 131.8912 112.1792 238.9504 254.1568 238.9504z m-159.8464 99.8912c15.0016 0 24.832-10.9568 24.832-27.5456 0-16.5376-9.8304-27.5968-24.832-27.5968-14.848 0-29.7472 11.0592-29.7472 27.648 0 16.5888 14.848 27.4944 29.696 27.4944zM296.0896 577.024c-14.848 0-29.8496 11.0592-29.8496 27.648 0 16.5376 15.0016 27.4944 29.8496 27.4944s24.7808-10.9056 24.7808-27.5456c0-16.5376-9.8816-27.5968-24.7808-27.5968zM921.6 289.792c0 127.8464-115.712 232.0384-245.6576 232.0384-137.5744 0-245.8624-104.2432-245.8624-232.0384 0-128.2048 108.3392-232.0384 245.8624-232.0384 28.8256 0 57.856 7.936 86.784 15.9744l79.2576-48.128-21.7088 79.9744C878.2848 153.8048 921.6 217.7024 921.6 289.792z m-358.0416 66.6624c-12.032 0-24.2688 13.6192-24.2688 27.5456 0 13.7216 12.2368 27.5456 24.2688 27.5456 18.432 0 30.3616-13.824 30.3616-27.5456 0-13.9264-11.9296-27.5456-30.3616-27.5456z m163.7376 0c-11.9808 0-24.1664 13.6192-24.1664 27.5456 0 13.7216 12.1856 27.5456 24.1664 27.5456 18.3296 0 30.464-13.824 30.464-27.5456 0-13.9264-12.1344-27.5456-30.464-27.5456z"  horiz-adv-x="1024" />
      
      <glyph glyph-name="paidui" unicode="&#58947;" d="M512-64A448 448 0 1 1 512 832a448 448 0 0 1 0-896z m-180.864 315.2L503.04 413.248V605.568c0 19.008 16.384 34.432 36.48 34.432 20.224 0 36.544-15.36 36.544-34.432v-206.592c0-9.088-3.84-17.92-10.688-24.32l-182.528-172.16a38.016 38.016 0 0 0-35.52-9.344 35.52 35.52 0 0 0-26.048 24.576 33.152 33.152 0 0 0 9.92 33.472z"  horiz-adv-x="1024" />
      
      <glyph glyph-name="tangshi" unicode="&#58948;" d="M512 832C265.6 832 64 630.4 64 384s201.6-448 448-448 448 201.6 448 448-201.6 448-448 448zM444.8 361.6v-218.368c0-14.08-14.016-25.216-30.784-25.216-16.832 0-30.848 11.2-30.848 25.216V361.6c-33.536 11.2-58.752 39.168-58.752 72.768L332.8 599.68c0 8.384 5.568 14.016 14.016 14.016 8.384 0 14.016-5.632 14.016-14.08v-137.152c0-8.384 5.568-14.016 13.952-14.016s14.016 5.632 14.016 14.016l2.816 47.616 2.752 92.352c0 8.448 5.632 14.08 14.08 14.08 8.32 0 13.952-5.632 13.952-14.08l2.816-92.352 2.752-47.616c0-8.384 5.632-14.016 14.08-14.016 8.32 0 13.952 5.632 13.952 14.016V599.616c0 8.384 5.632 14.016 14.016 14.016s13.952-5.632 13.952-14.08l19.648-165.12c0-33.664-25.216-61.632-58.816-72.832z m226.816 5.568v-226.752c0-11.2-11.2-19.584-25.216-19.584-14.016 0-25.216 8.32-25.216 19.584V316.8c-25.152 16.832-39.168 41.984-44.8 50.432-5.568 8.32 0 100.8 0 100.8 11.2 125.952 67.2 142.72 81.216 145.6h2.816c5.568 0 11.2-5.632 11.2-11.2v-235.2z"  horiz-adv-x="1024" />
      
      <glyph glyph-name="gouwuche-red" unicode="&#58945;" d="M64 832m448 0l0 0q448 0 448-448l0 0q0-448-448-448l0 0q-448 0-448 448l0 0q0 448 448 448ZM398.08 155.392a45.632 45.632 0 0 1-45.76-45.696c0-25.28 20.416-45.696 45.696-45.696a45.632 45.632 0 0 1 45.76 45.696 45.632 45.632 0 0 1-45.76 45.696zM718.08 155.392a45.632 45.632 0 0 1-45.696-45.696c0-25.28 20.416-45.696 45.696-45.696a45.696 45.696 0 1 1 0 91.392zM763.456 178.24H392.128c-32.896 0-61.888 26.048-65.856 59.392l-38.784 272.832-22.016 127.552c-1.344 11.2-11.52 20.288-21.376 20.288h-29.248a22.784 22.784 0 1 0 0 45.696h29.12c33.28 0 62.72-26.048 66.688-59.328l22.016-127.04 38.976-274.112c1.216-10.56 10.88-19.52 20.48-19.52h371.328a22.784 22.784 0 1 0 0-45.76zM420.8 269.696a22.72 22.72 0 0 0-22.784 21.12 22.784 22.784 0 0 0 21.12 24.448l310.144 22.848a22.784 22.784 0 0 1 22.272 19.2l35.968 205.888a28.672 28.672 0 0 1-5.76 21.248 14.144 14.144 0 0 1-10.944 5.056H374.848a22.784 22.784 0 0 0-22.848 22.848 23.04 23.04 0 0 0 22.848 23.04h395.712c17.472 0 33.536-7.168 45.248-20.352 13.376-15.104 19.392-36.224 16.832-58.368l-36.032-206.08a67.456 67.456 0 0 0-65.728-58.048l-308.416-22.72-1.664-0.128z"  horiz-adv-x="1024" />
      
      <glyph glyph-name="gouwuche-orange" unicode="&#58946;" d="M64 832m448 0l0 0q448 0 448-448l0 0q0-448-448-448l0 0q-448 0-448 448l0 0q0 448 448 448ZM398.08 155.392a45.632 45.632 0 0 1-45.76-45.696c0-25.28 20.416-45.696 45.696-45.696a45.632 45.632 0 0 1 45.76 45.696 45.632 45.632 0 0 1-45.76 45.696zM718.08 155.392a45.632 45.632 0 0 1-45.696-45.696c0-25.28 20.416-45.696 45.696-45.696a45.696 45.696 0 1 1 0 91.392zM763.456 178.24H392.128c-32.896 0-61.888 26.048-65.856 59.392l-38.784 272.832-22.016 127.552c-1.344 11.2-11.52 20.288-21.376 20.288h-29.248a22.784 22.784 0 1 0 0 45.696h29.12c33.28 0 62.72-26.048 66.688-59.328l22.016-127.04 38.976-274.112c1.216-10.56 10.88-19.52 20.48-19.52h371.328a22.784 22.784 0 1 0 0-45.76zM420.8 269.696a22.72 22.72 0 0 0-22.784 21.12 22.784 22.784 0 0 0 21.12 24.448l310.144 22.848a22.784 22.784 0 0 1 22.272 19.2l35.968 205.888a28.672 28.672 0 0 1-5.76 21.248 14.144 14.144 0 0 1-10.944 5.056H374.848a22.784 22.784 0 0 0-22.848 22.848 23.04 23.04 0 0 0 22.848 23.04h395.712c17.472 0 33.536-7.168 45.248-20.352 13.376-15.104 19.392-36.224 16.832-58.368l-36.032-206.08a67.456 67.456 0 0 0-65.728-58.048l-308.416-22.72-1.664-0.128z"  horiz-adv-x="1024" />
      
      <glyph glyph-name="sousuo-guanbi" unicode="&#58943;" d="M512 832a448 448 0 1 0 0-896A448 448 0 0 0 512 832z m156.992-288.192a28.032 28.032 0 0 1-39.616 0L510.592 424.96 391.808 543.808a28.032 28.032 0 0 1-39.616-39.616L471.04 385.408 352.192 266.624a28.032 28.032 0 0 1 39.616-39.616l118.784 118.848 118.784-118.848a28.032 28.032 0 0 1 39.616 39.616L550.144 385.408l118.848 118.784a28.032 28.032 0 0 1 0 39.616z"  horiz-adv-x="1024" />
      
      <glyph glyph-name="sousuo" unicode="&#58944;" d="M492.8 768a352 352 0 0 0 254.912-594.752l123.072-123.072a29.44 29.44 0 1 0-41.6-41.6l-124.736 124.8-0.64 0.832A352 352 0 1 0 492.8 768z m0-58.688a293.312 293.312 0 1 1 0-586.624 293.312 293.312 0 0 1 0 586.624z"  horiz-adv-x="1024" />
      
      <glyph glyph-name="yuyue-dingwei" unicode="&#58942;" d="M525.994608 895.995733a447.827467 447.827467 0 0 1-311.465369-124.244815 412.670281 412.670281 0 0 1 0-599.720168L525.909275-128l311.550702 300.03075a412.584948 412.584948 0 0 1 0 599.720168A447.742134 447.742134 0 0 1 526.079941 895.995733z m0-585.128228c-41.898492 0-79.871667 16.469265-107.434219 42.837155a142.932738 142.932738 0 0 0-44.543814 103.423569c0 80.81033 68.010383 146.260724 151.978033 146.260724 83.96765 0 151.978033-65.450394 151.978034-146.260724 0-40.447831-17.066596-76.970346-44.543815-103.423569-27.391886-26.453223-65.450394-42.837155-107.434219-42.837155z"  horiz-adv-x="1024" />
      
      <glyph glyph-name="yuyue-shenghuofuwu" unicode="&#58938;" d="M464.469333 790.869333a67.328 67.328 0 0 0 95.36 0l136.746667-123.818666V728.96c0 28.16 22.613333 51.029333 50.517333 51.029333a50.773333 50.773333 0 0 0 50.517334-51.029333v-153.088l78.592-71.082667a68.010667 68.010667 0 0 0 0-96l-78.293334-71.125333v-269.738667a68.266667 68.266667 0 0 0-19.797333-48.128c-12.672-12.757333-29.866667-19.882667-47.786667-19.797333H292.565333a67.584 67.584 0 0 0-67.242666 67.669333V337.066667l-77.482667 71.125333a68.010667 68.010667 0 0 0 0 96z m194.218667-508.885333a32 32 0 0 1-44.672-7.253333 127.232 127.232 0 0 0-103.509333-53.162667 127.146667 127.146667 0 0 0-101.12 49.92 32 32 0 0 1-50.773334-39.04 191.146667 191.146667 0 0 1 151.893334-74.88 191.189333 191.189333 0 0 1 155.477333 79.744 32 32 0 0 1-7.253333 44.672zM384 469.333333a42.666667 42.666667 0 1 1 0-85.333333 42.666667 42.666667 0 0 1 0 85.333333z m256 0a42.666667 42.666667 0 1 1 0-85.333333 42.666667 42.666667 0 0 1 0 85.333333z"  horiz-adv-x="1024" />
      
      <glyph glyph-name="yuyue-meishi" unicode="&#58939;" d="M512 543.573333C512 666.453333 427.776 808.448 320 810.666667 209.877333 812.842667 128 666.453333 128 543.573333c0-106.581333 74.24-160.426667 155.477333-174.464-15.914667-144.725333-41.216-333.226667-41.216-336.64C242.261333-8.96 276.992-42.666667 320-42.666667c10.026667 0 19.456 1.706667 28.288 5.034667a75.178667 75.178667 0 0 1 49.493333 70.144c0 3.370667-24.746667 191.872-40.661333 336.64C442.453333 383.658667 512 435.84 512 543.573333zM682.666667 13.44c0-26.922667-13.952-48.810667-33.109334-54.442667A26.88 26.88 0 0 0 640-42.666667c-23.936 0-42.666667 24.106667-42.666667 55.552 0 5.589333 13.056 737.194667 14.378667 760.746667 0 20.224 12.629333 37.034667 28.288 37.034667 12.202667 0 22.613333-10.666667 26.538667-24.704a37.973333 37.973333 0 0 0 1.749333-12.330667c1.749333-21.888 14.378667-754.602667 14.378667-760.192zM810.666667 13.44c0-26.922667-13.952-48.810667-33.109334-54.442667A26.88 26.88 0 0 0 768-42.666667c-23.936 0-42.666667 24.106667-42.666667 55.552 0 5.589333 13.056 737.194667 14.378667 760.746667 0 20.224 12.629333 37.034667 28.288 37.034667 12.202667 0 22.613333-10.666667 26.538667-24.704a37.973333 37.973333 0 0 0 1.749333-12.330667c1.749333-21.888 14.378667-754.602667 14.378667-760.192z"  horiz-adv-x="1024" />
      
      <glyph glyph-name="yuyue-chewei" unicode="&#58940;" d="M850.773333 567.466667C771.754667 820.906667 444.458667 894.805333 263.936 700.288 155.733333 583.594667 143.914667 399.786667 216.96 275.370667c65.621333-111.786667 153.6-204.672 249.258667-290.816 40.661333-36.693333 64.896-36.096 106.325333 0.512a1440.426667 1440.426667 0 0 1 186.026667 197.802666c58.965333 76.202667 110.037333 156.117333 106.624 250.325334A331.733333 331.733333 0 0 1 850.773333 567.466667z m-334.933333-389.674667c-155.52 0.384-282.453333 129.621333-281.6 286.677333 0.853333 157.994667 129.792 286.421333 285.952 284.714667a285.44 285.44 0 0 0 283.605333-287.146667c-0.341333-158.421333-128.213333-284.629333-288-284.245333zM552.021333 636.117333c-32.981333 1.024-65.962667 0.682667-98.944 0.682667-35.029333 0-43.904-8.661333-43.904-43.306667-0.128-97.706667-0.085333-195.413333 0-293.12 0-5.12 0.256-10.325333 0.768-15.488 1.706667-16 11.434667-23.978667 26.794667-25.514666 21.248-2.048 33.706667 10.026667 34.304 34.56 0.682667 29.098667 0.170667 58.197333 0.170667 91.050666 29.312 0 56.448-1.28 83.328 0.256 70.186667 3.925333 123.178667 59.050667 122.325333 125.866667-0.853333 69.546667-53.674667 122.752-124.842667 125.013333z m-3.328-189.738666c-23.296-0.426667-46.634667 0.128-69.973333 0.341333-1.792 0-3.584 1.109333-6.357333 2.048V574.976c28.16 0 54.698667 1.365333 81.066666-0.341333 36.096-2.304 62.122667-31.274667 61.354667-65.237334-0.981333-34.986667-29.184-62.293333-66.133333-63.018666z"  horiz-adv-x="1024" />
      
      <glyph glyph-name="yuyue-meifa" unicode="&#58937;" d="M341.333333 636.629333c-26.88-15.914667-80.554667-63.744-69.802666-164.693333 0 0 10.752-47.829333-64.426667-100.992 0 0-21.461333-10.581333 37.546667-31.829333 0 0 26.88-5.333333 21.504-42.538667 0 0-5.376-79.701333 16.128-95.658667 0 0 26.837333-42.496 96.597333 0 0 0 26.837333 15.957333 53.674667-15.914666 10.752-15.957333 26.88-31.914667 37.546666-47.829334 26.88-47.829333 32.213333-106.282667 21.504-159.402666-16.085333-53.162667-161.024 5.290667-246.912 84.992-10.752 10.624-37.546667 58.453333-37.546666 95.658666 0 15.914667 0 31.872-16.128 37.205334-53.717333 26.538667-101.973333 170.026667-16.128 249.728 32.213333 47.786667 48.341333 132.864 48.341333 186.026666 0 21.205333 5.333333 42.453333 10.709333 63.701334C266.154667 774.826667 368.213333 780.16 378.88 774.826667c5.376 5.333333 16.085333 10.666667 21.504 10.666666 69.76 37.162667 236.16 37.162667 327.424-26.581333l5.376-5.333333c91.264-69.034667 96.597333-180.650667 91.264-239.104 0-21.248 10.709333-37.205333 26.837333-47.786667 42.922667-21.290667 64.426667-111.616 64.426667-132.864-16.128-361.386667-332.8-345.386667-332.8-345.386667 53.632 47.786667 69.717333 154.069333 69.717333 154.069334 42.965333 127.573333-155.648 159.445333-155.648 159.445333-171.776 10.624-96.597333 154.069333-96.597333 154.069333 53.674667 85.034667-32.213333 154.112-32.213333 154.112-10.752 5.290667-16.128 15.914667-26.88 26.538667z"  horiz-adv-x="1024" />
      
      <glyph glyph-name="icon-jianhao" unicode="&#58914;" d="M204.8 435.2h614.4v-51.2H204.8zM819.2 896a204.8 204.8 0 0 0 204.8-204.8v-614.4a204.8 204.8 0 0 0-204.8-204.8H204.8a204.8 204.8 0 0 0-204.8 204.8V691.2a204.8 204.8 0 0 0 204.8 204.8h614.4z m0-51.2H204.8a153.6 153.6 0 0 1-153.344-144.5888L51.2 691.2v-614.4a153.6 153.6 0 0 1 144.5888-153.344L204.8-76.8h614.4a153.6 153.6 0 0 1 153.344 144.5888L972.8 76.8V691.2a153.6 153.6 0 0 1-144.5888 153.344L819.2 844.8z"  horiz-adv-x="1024" />
      
      <glyph glyph-name="icon-jianhao0" unicode="&#58929;" d="M204.8 435.2h614.4v-51.2H204.8zM819.2 896a204.8 204.8 0 0 0 204.8-204.8v-614.4a204.8 204.8 0 0 0-204.8-204.8H204.8a204.8 204.8 0 0 0-204.8 204.8V691.2a204.8 204.8 0 0 0 204.8 204.8h614.4z m0-51.2H204.8a153.6 153.6 0 0 1-153.344-144.5888L51.2 691.2v-614.4a153.6 153.6 0 0 1 144.5888-153.344L204.8-76.8h614.4a153.6 153.6 0 0 1 153.344 144.5888L972.8 76.8V691.2a153.6 153.6 0 0 1-144.5888 153.344L819.2 844.8z"  horiz-adv-x="1024" />
      
      <glyph glyph-name="icon-jiahao" unicode="&#58932;" d="M793.6 435.2a25.6 25.6 0 1 0 0-51.2h-563.2a25.6 25.6 0 0 0 0 51.2h563.2zM537.6 128a25.6 25.6 0 1 0-51.2 0V691.2a25.6 25.6 0 0 0 51.2 0v-563.2zM819.2 896a204.8 204.8 0 0 0 204.8-204.8v-614.4a204.8 204.8 0 0 0-204.8-204.8H204.8a204.8 204.8 0 0 0-204.8 204.8V691.2a204.8 204.8 0 0 0 204.8 204.8h614.4z m0-51.2H204.8a153.6 153.6 0 0 1-153.344-144.5888L51.2 691.2v-614.4a153.6 153.6 0 0 1 144.5888-153.344L204.8-76.8h614.4a153.6 153.6 0 0 1 153.344 144.5888L972.8 76.8V691.2a153.6 153.6 0 0 1-144.5888 153.344L819.2 844.8z"  horiz-adv-x="1024" />
      
      </font>
</defs>
</svg>
